<svg width="313" height="76" viewBox="0 0 313 76" fill="none" xmlns="http://www.w3.org/2000/svg">
<g clip-path="url(#clip0_468_19159)">
<path d="M38.3078 15.0205C37.7502 13.2118 36.9851 11.4742 36.0099 9.80522C35.0347 8.13628 33.885 6.66435 32.5623 5.38944C31.2395 4.11453 29.7411 3.09511 28.0695 2.32992C26.3979 1.56472 24.5404 1.18212 22.4971 1.18212C20.2208 1.18212 18.0743 1.77318 16.0539 2.95529C14.0335 4.13741 12.2689 5.78348 10.7603 7.89223C9.2504 10.0022 8.05496 12.5165 7.17269 15.4374C6.29043 18.3584 5.84993 21.5565 5.84993 25.0342C5.84993 28.5119 6.30316 31.71 7.20834 34.631C8.11352 37.5519 9.39045 40.0674 11.0391 42.1762C12.6865 44.2862 14.6713 45.931 16.9934 47.1131C19.3143 48.2952 21.8695 48.8863 24.655 48.8863C27.7194 48.8863 30.2847 48.2838 32.351 47.0775C34.4172 45.8725 36.043 44.365 37.227 42.5575C38.4109 40.7487 39.1875 38.7913 39.5606 36.6812C39.9323 34.5725 39.954 32.6125 39.6306 30.805C39.3059 28.9975 38.6668 27.4912 37.7158 26.285C36.7635 25.08 35.5668 24.4775 34.1282 24.4775C33.2459 24.4775 32.4452 24.6287 31.7259 24.9287C31.0053 25.2312 30.2732 25.5782 29.5323 25.9723C28.7888 26.3663 27.988 26.7146 27.1287 27.0158C26.2693 27.3184 25.2585 27.4671 24.0987 27.4671C23.3552 27.4671 22.5544 27.34 21.695 27.0845C20.8357 26.8303 20.0234 26.4591 19.257 25.9723C18.4906 25.4854 17.8401 24.8486 17.3066 24.0593C16.7719 23.2712 16.4358 22.3674 16.2971 21.3468H16.9934C17.2723 22.3204 17.6669 23.0742 18.1774 23.6068C18.688 24.1406 19.257 24.5347 19.8847 24.7889C20.511 25.0444 21.1387 25.1829 21.7651 25.2058C22.3927 25.23 22.9376 25.2401 23.4023 25.2401C24.3775 25.2401 25.3756 24.9859 26.3966 24.4749C27.4177 23.9652 28.4629 23.397 29.531 22.7704C30.5992 22.145 31.6902 21.5781 32.8042 21.0671C33.9181 20.5574 35.0563 20.3019 36.2174 20.3019C38.1678 20.3019 39.7108 21.0315 40.8489 22.492C41.9858 23.9525 42.695 25.7943 42.9738 28.02C43.2526 30.2457 43.1011 32.6341 42.5218 35.1826C41.94 37.7324 40.8961 40.1196 39.3874 42.3452C37.8788 44.5709 35.8927 46.4127 33.4331 47.8732C30.9709 49.3337 28.0466 50.0633 24.6576 50.0633C20.9885 50.0633 17.6453 49.4608 14.628 48.2558C11.6095 47.0508 9.02124 45.359 6.86205 43.1791C4.70286 41.0004 3.01854 38.3693 1.81291 35.2868C0.60218 32.2095 0 28.7903 0 25.0342C0 21.2781 0.591995 17.8601 1.77599 14.7765C2.95998 11.6941 4.56155 9.0629 6.58197 6.88425C8.60239 4.70559 10.9806 3.01376 13.7216 1.8075C16.46 0.602499 19.3856 0 22.4971 0C24.4933 0 26.3037 0.208459 27.9294 0.625378C29.5539 1.0423 31.0053 1.59904 32.2822 2.29433C33.5591 2.98961 34.6731 3.77896 35.6254 4.65856C36.5764 5.53943 38.3524 7.32659 39.0042 8.20619V15.0193H38.3078V15.0205Z" fill="#560D0B"/>
<path d="M110.347 45.7225C109.776 45.3158 109.206 44.5074 108.639 43.2884L90.6581 3.43066C90.471 3.94164 90.2787 4.45517 90.0916 4.96488C89.5874 6.3224 89.0871 7.68375 88.5817 9.04127C87.8624 10.986 87.1418 12.9334 86.4225 14.8781C85.5848 17.1458 84.742 19.4172 83.9043 21.6836C83.2499 23.4517 82.0366 26.7463 80.8437 29.9787C81.2868 29.1983 81.9271 28.8881 82.3562 28.7699C82.3791 28.7 83.2397 26.3943 83.9323 24.5474C84.9406 21.8564 85.9463 19.1655 86.9546 16.4734C87.5772 14.8031 88.2036 13.1367 88.8261 11.4665C91.6639 17.7546 94.5016 24.0402 97.3407 30.3296C97.6984 31.1176 98.0638 31.9756 97.8766 32.8196C97.6997 33.642 97.0313 34.2712 96.34 34.7504C95.4565 35.3656 94.4138 35.8474 93.3418 35.7546C92.0687 35.644 91.0082 34.7581 90.1145 33.8441C89.2246 32.9315 88.3614 31.921 87.1825 31.424C84.8018 30.4211 82.2531 31.8956 80.6438 33.6179C79.1187 35.2512 78.0174 37.2659 77.3236 39.381C77.2637 39.5641 77.2052 39.7471 77.1428 39.9289C76.8092 40.9076 76.4095 41.8749 75.8073 42.7215C75.0613 43.7701 74.016 44.604 72.8282 45.0997C72.4285 45.2662 72.03 45.4175 71.6022 45.4683C71.1095 45.5268 70.6156 45.5713 70.1216 45.603C68.9312 45.678 67.7371 45.6513 66.5493 45.6551C65.2953 45.659 64.0412 45.6526 62.7872 45.6437C62.5619 45.6424 62.3353 45.6399 62.1099 45.6386C60.9603 45.6297 59.812 45.617 58.6624 45.6018C58.5771 45.6018 58.4918 45.5979 58.4065 45.5979C56.8584 45.5979 55.7635 45.3971 55.1129 44.9904C54.4624 44.5836 54.139 43.7714 54.139 42.5562V7.38631C54.139 6.16733 54.4942 5.35891 55.2071 4.95216C55.9163 4.54541 57.1856 4.34458 59.015 4.34458V4.03952H46.0942V4.34458C47.0262 4.34458 47.7709 4.54541 48.3171 4.95216C48.8671 5.35891 49.1408 6.16733 49.1408 7.38631V43.2884C49.1408 44.5074 48.8658 45.3158 48.3171 45.7225C47.7709 46.1293 47.0262 46.3301 46.0942 46.3301V46.6352H78.5025C78.5585 46.6352 78.6693 46.6415 78.7775 46.6352V46.2983C78.7775 46.2564 78.2033 46.236 78.1447 46.2284C77.9436 46.1941 77.745 46.1343 77.5566 46.0517C77.3821 45.9755 77.2434 45.8369 77.1492 45.6691C76.9506 45.312 76.934 44.8849 76.9506 44.4781C77.0511 41.7872 78.4248 39.4077 80.0837 37.3562C81.0576 36.1448 82.1843 34.9462 83.5618 34.1899C84.1907 33.8467 84.8107 33.6725 85.4193 33.6725C86.2328 33.6725 86.9215 33.8874 87.4919 34.3119C88.0584 34.739 88.6288 35.2144 89.1991 35.7432C89.7657 36.2707 90.3857 36.7473 91.0566 37.1744C91.7275 37.6015 92.5691 37.8138 93.585 37.8138C94.7639 37.8138 95.7582 37.3689 96.573 36.4728C97.3865 35.5843 98.0752 34.5496 98.6456 33.3713L103.094 43.2884C103.379 43.896 103.511 44.3955 103.49 44.7781C103.469 45.167 103.347 45.4797 103.124 45.7225C102.902 45.9653 102.596 46.1293 102.21 46.2081C101.825 46.292 101.407 46.3301 100.961 46.3301V46.6352H112.603V46.3301C111.667 46.3301 110.916 46.1293 110.349 45.7225H110.347Z" fill="#560D0B"/>
<path d="M115.582 46.3312C116.516 46.3312 117.259 46.1278 117.806 45.7224C118.355 45.3169 118.628 44.5059 118.628 43.2882V7.38488C118.628 6.16844 118.355 5.35621 117.806 4.95073C117.257 4.54525 116.515 4.34188 115.582 4.34188V4.03809H123.627L138.803 39.2716L152.456 4.03809H160.501V4.34188C159.566 4.34188 158.826 4.54525 158.277 4.95073C157.728 5.35621 157.454 6.16717 157.454 7.38488V43.2869C157.454 44.5034 157.729 45.3156 158.277 45.7211C158.826 46.1266 159.566 46.3299 160.501 46.3299V46.6337H149.408V46.3299C150.343 46.3299 151.085 46.1266 151.632 45.7211C152.181 45.3156 152.456 44.5046 152.456 43.2869V7.08109L152.395 7.1421V7.32514L136.975 47.2439L119.665 7.5069V43.2882C119.665 44.5046 119.938 45.3169 120.487 45.7224C121.036 46.1278 121.777 46.3312 122.711 46.3312V46.635H115.581V46.3312H115.582Z" fill="#560D0B"/>
<path d="M196.42 34.617C196.42 36.6977 195.9 38.4976 194.857 40.0178C193.814 41.5393 192.472 42.799 190.83 43.7981C189.186 44.7984 187.344 45.5484 185.3 46.0479C183.256 46.5475 181.232 46.7979 179.23 46.7979C177.426 46.7979 175.672 46.5373 173.97 46.0174C172.267 45.4975 170.703 44.7578 169.283 43.7968C167.859 42.8371 166.638 41.6563 165.616 40.2568C164.594 38.8561 163.882 37.2774 163.482 35.5156H164.505C164.904 37.0371 165.587 38.4264 166.548 39.6861C167.509 40.9457 168.661 42.0262 170.005 42.9261C171.346 43.826 172.809 44.5264 174.392 45.0272C175.974 45.528 177.587 45.7772 179.231 45.7772C180.673 45.7772 182.136 45.5776 183.619 45.1772C185.101 44.7781 186.424 44.1781 187.586 43.3773C188.749 42.5778 189.7 41.5876 190.442 40.4068C191.183 39.2272 191.553 37.857 191.553 36.2961C191.553 34.5763 191.173 33.145 190.411 32.0049C189.65 30.8647 188.648 29.8948 187.405 29.0941C186.163 28.2945 184.741 27.6234 183.138 27.0845C181.535 26.5442 179.902 26.0244 178.239 25.5236C176.576 25.024 174.943 24.5041 173.34 23.9639C171.737 23.4237 170.314 22.7437 169.073 21.9238C167.83 21.104 166.828 20.1036 166.067 18.9228C165.306 17.7432 164.925 16.2929 164.925 14.5718C164.925 12.5724 165.345 10.8716 166.187 9.4709C167.028 8.07143 168.139 6.94143 169.522 6.08089C170.905 5.22036 172.457 4.59117 174.18 4.19078C175.903 3.79165 177.666 3.59082 179.47 3.59082C181.033 3.59082 182.526 3.77132 183.948 4.13104C185.37 4.49076 186.662 4.97123 187.824 5.57119C188.987 6.17114 190.018 6.85245 190.919 7.61129C191.821 8.37141 192.551 9.13152 193.113 9.89163L193.954 16.5534H193.113C192.632 14.9925 191.95 13.4926 191.069 12.0525C190.187 10.6123 189.156 9.34252 187.974 8.24175C186.792 7.14226 185.479 6.26139 184.038 5.60169C182.596 4.94199 181.072 4.61151 179.47 4.61151C178.228 4.61151 177.014 4.7615 175.834 5.06148C174.651 5.36145 173.619 5.84193 172.738 6.50163C171.856 7.16132 171.145 8.01169 170.604 9.05144C170.063 10.0925 169.793 11.3725 169.793 12.8927C169.793 14.4129 170.174 15.6039 170.935 16.5839C171.697 17.5652 172.698 18.4054 173.941 19.1045C175.184 19.8049 176.606 20.3947 178.208 20.8752C179.81 21.3556 181.443 21.8463 183.107 22.3458C184.77 22.8466 186.403 23.3957 188.006 23.9957C189.608 24.5957 191.031 25.357 192.274 26.276C193.515 27.1976 194.517 28.3263 195.28 29.6673C196.041 31.0083 196.422 32.6582 196.422 34.6182L196.42 34.617Z" fill="#560D0B"/>
<path d="M215.247 26.675C214.433 26.675 213.571 26.7869 212.656 27.0093C211.742 27.233 210.898 27.6792 210.126 28.3478C209.354 29.0176 208.714 29.971 208.206 31.2077C207.699 32.4458 207.445 34.0588 207.445 36.0455V43.2869C207.445 44.5034 207.851 45.3156 208.664 45.7211C209.476 46.1266 210.492 46.3299 211.711 46.3299V46.6337H199.4V46.3299C200.335 46.3299 201.077 46.1266 201.625 45.7211C202.173 45.3156 202.447 44.5046 202.447 43.2869V7.38488C202.447 6.16844 202.173 5.35621 201.625 4.95073C201.076 4.54525 200.334 4.34188 199.4 4.34188V4.03809H214.028C216.506 4.03809 218.803 4.30247 220.916 4.82871C223.028 5.35621 224.868 6.10616 226.432 7.07981C227.996 8.05347 229.215 9.26991 230.09 10.7304C230.963 12.1909 231.4 13.8751 231.4 15.7817C231.4 17.6884 230.973 19.3319 230.119 20.711C229.266 22.0914 228.108 23.2164 226.645 24.0883C225.182 24.9616 223.476 25.6098 221.526 26.0356C219.575 26.4615 217.482 26.675 215.248 26.675H215.247ZM207.446 29.84C208.056 28.6643 209.001 27.6703 210.28 26.858C211.56 26.0471 213.215 25.6416 215.247 25.6416C216.953 25.6416 218.477 25.3887 219.817 24.8815C221.158 24.3743 222.306 23.6752 223.261 22.7816C224.215 21.8893 224.947 20.8445 225.455 19.6471C225.963 18.451 226.216 17.1634 226.216 15.783C226.216 14.4026 225.942 13.0654 225.393 11.7663C224.845 10.4686 224.031 9.3233 222.955 8.32803C221.878 7.33403 220.568 6.54341 219.024 5.9549C217.48 5.36765 215.711 5.07276 213.722 5.07276H207.444V29.8388L207.446 29.84Z" fill="#560D0B"/>
<path d="M287.402 46.3309C288.012 46.3309 288.61 46.2801 289.2 46.1784C289.788 46.078 290.306 45.8949 290.754 45.6305C291.201 45.3674 291.566 45.0026 291.851 44.5349C292.135 44.0684 292.278 43.4506 292.278 42.6791V8.11546C292.278 6.89902 291.952 6.0868 291.303 5.68132C290.652 5.27584 289.555 5.07246 288.012 5.07246H282.099C281.206 5.07246 280.474 5.36736 279.906 5.9546C279.337 6.54312 278.88 7.23205 278.535 8.02394C278.188 8.81456 277.915 9.63696 277.712 10.4886C277.509 11.3402 277.325 12.0508 277.164 12.6189H276.554L277.407 4.03906H312.147L313 12.6189H312.39C312.227 12.0508 312.044 11.3415 311.842 10.4886C311.638 9.63696 311.363 8.81584 311.019 8.02394C310.673 7.23332 310.216 6.54312 309.648 5.9546C309.079 5.36736 308.347 5.07246 307.455 5.07246H301.542C299.998 5.07246 298.901 5.27584 298.251 5.68132C297.601 6.0868 297.276 6.89775 297.276 8.11546V42.6791C297.276 43.4506 297.419 44.0696 297.703 44.5349C297.986 45.0014 298.352 45.3662 298.8 45.6305C299.247 45.8949 299.765 46.078 300.354 46.1784C300.943 46.2801 301.544 46.3309 302.152 46.3309V46.6347H287.403V46.3309H287.402Z" fill="#560D0B"/>
<path d="M234.38 25.337C234.38 22.0512 234.899 19.0603 235.935 16.3618C236.971 13.6645 238.412 11.3626 240.262 9.45467C242.111 7.54803 244.306 6.06721 246.845 5.0122C249.384 3.95846 252.138 3.42969 255.104 3.42969C258.111 3.42969 260.874 3.95719 263.393 5.0122C265.913 6.06721 268.096 7.54803 269.946 9.45467C271.794 11.3613 273.237 13.6633 274.273 16.3618C275.31 19.0603 275.828 22.0512 275.828 25.337C275.828 28.6228 275.31 31.6149 274.273 34.3135C273.237 37.012 271.794 39.314 269.946 41.2206C268.096 43.1285 265.913 44.6081 263.393 45.6631C260.874 46.7168 258.111 47.2456 255.104 47.2456C252.138 47.2456 249.384 46.7181 246.845 45.6631C244.306 44.6081 242.112 43.1285 240.262 41.2206C238.412 39.314 236.971 37.012 235.935 34.3135C234.899 31.6162 234.38 28.6241 234.38 25.337ZM239.561 25.337C239.561 27.7711 239.906 30.2358 240.597 32.731C241.287 35.2261 242.303 37.4683 243.645 39.455C244.985 41.443 246.621 43.0662 248.551 44.3233C250.48 45.5817 252.665 46.2096 255.103 46.2096C257.541 46.2096 259.724 45.5804 261.655 44.3233C263.585 43.0662 265.22 41.443 266.562 39.455C267.903 37.4683 268.919 35.2261 269.61 32.731C270.301 30.2358 270.646 27.7711 270.646 25.337C270.646 22.9029 270.3 20.4382 269.61 17.9443C268.919 15.4492 267.904 13.2082 266.562 11.2202C265.221 9.2335 263.585 7.61032 261.655 6.35193C259.725 5.09482 257.541 4.46563 255.103 4.46563C252.665 4.46563 250.48 5.09482 248.551 6.35193C246.621 7.61032 244.985 9.2335 243.645 11.2202C242.304 13.2082 241.288 15.4492 240.597 17.9443C239.906 20.4395 239.561 22.9041 239.561 25.337Z" fill="#560D0B"/>
<path d="M255.103 16.4941C255.103 23.264 257.181 25.3384 263.961 25.3384C257.181 25.3384 255.103 27.4128 255.103 34.1827C255.103 27.4128 253.025 25.3384 246.245 25.3384C253.025 25.3384 255.103 23.264 255.103 16.4941Z" fill="#560D0B"/>
<path d="M61.2276 75.8108H59.6514V63.8968L54.7143 70.0006H54.5463L49.5888 63.8968V75.8108H48.0127V61.5059H49.5251L54.6303 67.7774L59.7138 61.5059H61.2263V75.8108H61.2276Z" fill="#560D0B"/>
<path d="M81.9001 75.8107H80.2616L78.1814 71.2169H71.6274L69.5892 75.8107H67.9507L74.3162 61.4219H75.3665L81.9001 75.8107ZM74.842 63.898L72.2372 69.834H77.5308L74.842 63.898Z" fill="#560D0B"/>
<path d="M92.1006 68.4486L99.7265 75.8108H97.6043L90.1884 68.6786V75.8108H88.6123V61.5059H90.1884V68.3431L96.6583 61.5059H98.6126L92.1006 68.4486Z" fill="#560D0B"/>
<path d="M107.91 75.8108H106.334V61.5059H107.91V75.8108Z" fill="#560D0B"/>
<path d="M129.427 75.8108H128.082L117.851 64.0226V75.8108H116.317V61.5059H117.662L127.892 73.294V61.5059H129.427V75.8108Z" fill="#560D0B"/>
<path d="M149.715 64.2117C147.404 62.7855 145.178 62.7436 144.632 62.7436C141.187 62.7436 138.708 65.3658 138.708 68.658C138.708 72.5589 141.775 74.6143 144.611 74.6143C146.439 74.6143 147.93 74.0067 148.434 73.8173V70.4197H145.536V69.0355H150.011V74.8037C148.288 75.5587 146.628 75.9998 144.759 75.9998C139.906 75.9998 137.027 72.5183 137.027 68.6796C137.027 64.6311 140.094 61.3174 144.737 61.3174C146.796 61.3174 148.33 61.9466 149.716 62.5338V64.2117H149.715Z" fill="#560D0B"/>
<path d="M174.107 68.1763V75.8117H172.53V68.1763L167.111 61.5068H169.023L173.308 66.792L177.657 61.5068H179.569L174.108 68.1763H174.107Z" fill="#560D0B"/>
<path d="M184.129 68.658C184.129 64.8828 186.966 61.3174 191.777 61.3174C196.588 61.3174 199.445 64.757 199.445 68.658C199.445 72.9365 196 75.9985 191.693 75.9985C187.386 75.9985 184.129 72.8729 184.129 68.658ZM197.764 68.616C197.764 65.784 195.58 62.8058 191.777 62.8058C187.974 62.8058 185.811 65.5959 185.811 68.6783C185.811 72.1598 188.606 74.5088 191.673 74.5088C195.097 74.5088 197.764 72.0543 197.764 68.6147V68.616Z" fill="#560D0B"/>
<path d="M218.91 69.1833C218.91 71.1763 218.72 72.1831 218.111 73.2317C217.503 74.302 215.905 76.0001 212.86 76.0001C211.894 76.0001 209.225 75.7904 207.734 73.5037C206.978 72.3496 206.768 71.3225 206.768 69.1833V61.5059H208.344V69.2672C208.344 71.3861 208.66 72.3712 209.5 73.252C210.362 74.1545 211.601 74.574 212.861 74.574C215.067 74.574 216.348 73.3575 216.874 72.2669C217.336 71.3225 217.336 69.6243 217.336 69.2672V61.5059H218.912V69.1833H218.91Z" fill="#560D0B"/>
<path d="M249.331 69.1833C249.331 71.1763 249.141 72.1831 248.532 73.2317C247.924 74.302 246.326 76.0001 243.281 76.0001C242.315 76.0001 239.646 75.7904 238.155 73.5037C237.399 72.3496 237.189 71.3225 237.189 69.1833V61.5059H238.765V69.2672C238.765 71.3861 239.081 72.3712 239.921 73.252C240.783 74.1545 242.022 74.574 243.282 74.574C245.488 74.574 246.769 73.3575 247.295 72.2669C247.757 71.3225 247.757 69.6243 247.757 69.2672V61.5059H249.333V69.1833H249.331Z" fill="#560D0B"/>
<path d="M261.605 61.5059C265.197 61.5059 266.332 63.4773 266.332 65.4285C266.332 67.3796 265.197 69.351 261.605 69.351H259.084V75.8108H257.508V61.5059H261.605ZM259.084 62.8914V67.9668H261.437C264.315 67.9668 264.651 66.4568 264.651 65.4285C264.651 64.4001 264.315 62.8901 261.437 62.8901H259.084V62.8914Z" fill="#560D0B"/>
</g>
<defs>
<clipPath id="clip0_468_19159">
<rect width="313" height="76" fill="white"/>
</clipPath>
</defs>
</svg>
