<svg width="391" height="92" viewBox="0 0 391 92" fill="none" xmlns="http://www.w3.org/2000/svg">
<g clip-path="url(#clip0_658_18943)">
<path fill-rule="evenodd" clip-rule="evenodd" d="M0 55.2H46.1635C51.1697 55.2 55.3962 50.9884 55.3962 46C55.3962 41.0116 51.1697 36.8 46.1635 36.8H18.4654V18.4H46.1635C61.3616 18.4 73.8617 30.8558 73.8617 46C73.8617 59.7796 63.5108 71.3409 50.19 73.3036L64.9367 87.998C81.0375 80.7964 92.3271 64.6453 92.3271 45.9949C92.3271 20.7 71.5535 0 46.1635 0H0V55.2ZM0 92H42.6141C42.5679 91.8773 42.5217 91.7598 42.4756 91.6371C39.557 84.1698 33.566 78.2051 26.0773 75.2969C23.964 74.4791 21.7328 73.9016 19.4143 73.6H0V92Z" fill="#6FCFEE"/>
<path d="M136.659 61.1794V57.5148H136.567C134.562 60.3003 131.212 61.8337 127.437 61.8337C119.938 61.8337 114.024 56.1706 114.024 48.6061C114.024 41.0417 119.615 34.7754 127.299 34.7754C130.792 34.7754 134.1 36.0277 136.198 38.6292H136.29V26.8379H141.132V61.1846H136.659V61.1794ZM127.668 39.1812C122.728 39.1812 118.866 43.311 118.866 48.371C118.866 53.431 122.826 57.4228 127.668 57.4228C132.51 57.4228 136.659 53.431 136.659 48.555C136.659 43.311 133.12 39.1812 127.668 39.1812Z" fill="#6FCFEE"/>
<path d="M146.918 32.4961V26.833H151.76V32.4961H146.918ZM146.918 61.1797V35.4657H151.76V61.1797H146.918Z" fill="#6FCFEE"/>
<path d="M184.675 50.4107C185.793 54.6836 189.194 57.4181 193.154 57.4181C196.18 57.4181 199.021 55.8387 200.514 53.0992H205.356C203.351 58.3892 198.508 61.8239 192.964 61.8239C185.696 61.8239 179.828 55.4196 179.828 48.5503C179.828 40.4287 185.978 34.7656 192.825 34.7656C200.417 34.7656 206.192 40.6127 206.192 47.9932C206.192 48.7803 206.192 49.5265 206.054 50.4056H184.675V50.4107ZM201.35 46.7001C200.976 42.3352 197.113 39.1816 192.964 39.1816C188.814 39.1816 185.044 42.2892 184.67 46.7001H201.345H201.35Z" fill="#6FCFEE"/>
<path d="M210.531 61.1796V35.4656H215.05V37.7861H215.142C216.307 36.0687 218.312 34.9545 221.708 34.7705V39.7385C217.517 39.8765 215.373 42.4321 215.373 46.7458V61.1796H210.531Z" fill="#6FCFEE"/>
<path d="M227.381 50.4107C228.499 54.6836 231.9 57.4181 235.86 57.4181C238.886 57.4181 241.727 55.8387 243.22 53.0992H248.062C246.057 58.3892 241.215 61.8239 235.67 61.8239C228.402 61.8239 222.534 55.4196 222.534 48.5503C222.534 40.4287 228.684 34.7656 235.531 34.7656C243.123 34.7656 248.898 40.6127 248.898 47.9932C248.898 48.7803 248.898 49.5265 248.76 50.4056H227.381V50.4107ZM244.056 46.7001C243.682 42.3352 239.819 39.1816 235.67 39.1816C231.52 39.1816 227.75 42.2892 227.376 46.7001H244.051H244.056Z" fill="#6FCFEE"/>
<path d="M274.268 61.1798V57.1881H274.175C272.36 60.2496 269.097 61.829 265.42 61.829C257.875 61.829 251.725 56.1658 251.725 48.7394C251.725 40.5258 257.639 34.7656 265.235 34.7656C269.01 34.7656 272.175 36.1558 274.181 39.0845H274.273V35.4658H279.115V61.1798H274.273H274.268ZM274.36 48.3714C274.36 43.3574 270.729 39.1816 265.368 39.1816C260.526 39.1816 256.567 43.3114 256.567 48.3714C256.567 53.4314 260.526 57.4232 265.368 57.4232C270.211 57.4232 274.36 53.2474 274.36 48.3714Z" fill="#6FCFEE"/>
<path d="M309.414 52.685C307.362 58.4861 302.428 61.8287 296.698 61.8287C289.291 61.8287 283.47 55.8896 283.47 48.5552C283.47 40.8016 289.107 34.7705 296.652 34.7705C302.52 34.7705 307.88 38.4352 309.414 44.0063H304.059C302.612 40.9907 300.283 39.1814 296.79 39.1814C291.712 39.1814 288.312 43.0352 288.312 48.2792C288.312 53.5232 291.805 57.423 296.698 57.423C300.007 57.423 302.658 55.6596 304.012 52.6901H309.414V52.685Z" fill="#6FCFEE"/>
<path d="M313.856 61.1797V39.8766H310.363V35.4657H313.856V26.833H318.698V35.4657H322.935V39.8766H318.698V61.1797H313.856Z" fill="#6FCFEE"/>
<path d="M325.812 32.4961V26.833H330.654V32.4961H325.812ZM325.812 61.1797V35.4657H330.654V61.1797H325.812Z" fill="#6FCFEE"/>
<path d="M348.509 34.7705C348.273 34.7705 348.037 34.7705 347.806 34.791V39.1814C347.863 39.1814 347.929 39.1814 347.991 39.1814C352.274 39.1814 354.423 41.737 354.423 47.1701V61.1847H359.265V45.7747C359.265 38.6703 354.7 34.7756 348.504 34.7756L348.509 34.7705Z" fill="#6FCFEE"/>
<path d="M386.066 57.791C384.06 60.4845 380.849 61.8287 377.166 61.8287C369.76 61.8287 363.379 55.4705 363.379 48.5092C363.379 40.7556 369.437 34.7705 377.213 34.7705C380.567 34.7705 384.106 36.1607 386.158 38.4352V35.4656H391V57.791C391 66.1476 385.83 71.2996 377.074 71.2996C371.16 71.2996 366.503 68.1921 364.312 63.1781H369.714C371.529 65.7285 373.95 66.8887 377.12 66.8887C383.034 66.8887 386.158 63.6841 386.158 57.791H386.066ZM386.158 48.3252C386.158 42.289 381.547 39.1814 377.074 39.1814C372.278 39.1814 368.226 43.3112 368.226 48.3252C368.226 53.3392 372.324 57.423 377.125 57.423C382.762 57.423 386.163 52.501 386.163 48.3252H386.158Z" fill="#6FCFEE"/>
<path d="M348.509 34.7705C348.273 34.7705 348.037 34.7705 347.806 34.791C347.575 34.7756 347.339 34.7705 347.104 34.7705C340.907 34.7705 336.342 38.6703 336.342 45.7696V61.1796H341.184V47.165C341.184 41.7318 343.334 39.1763 347.616 39.1763C347.678 39.1763 347.745 39.1763 347.801 39.1763C347.858 39.1763 347.924 39.1763 347.986 39.1763C352.269 39.1763 354.418 41.7318 354.418 47.165V61.1796H359.26V45.7696C359.26 38.6652 354.695 34.7705 348.499 34.7705H348.509Z" fill="#6FCFEE"/>
<path d="M174.37 61.1801V44.6967L169.528 39.877V61.1801H174.37Z" fill="#6FCFEE"/>
<path d="M162.957 61.1801V44.6967L158.115 39.877V61.1801H162.957Z" fill="#6FCFEE"/>
<path d="M178.894 31.2439V26.833H177.776C172.508 26.833 169.528 29.8537 169.528 34.3055V35.4657H162.957V34.3055C162.957 32.123 164.681 31.2439 167.476 31.2439V26.833H166.358C161.09 26.833 158.11 29.8537 158.11 34.3055V35.4657H153.591V39.8766H178.889V35.4657H174.37V34.3055C174.37 32.123 176.093 31.2439 178.889 31.2439H178.894Z" fill="#6FCFEE"/>
</g>
<defs>
<clipPath id="clip0_658_18943">
<rect width="391" height="92" fill="white"/>
</clipPath>
</defs>
</svg>
