<svg width="418" height="363" viewBox="0 0 418 363" fill="none" xmlns="http://www.w3.org/2000/svg">
<path d="M37.7549 25.5756C-10.6993 67.1998 -12.4356 147.893 33.9512 203.314C62.1223 236.978 101.386 254.16 138.631 253.032C160.171 252.376 181.408 265.415 192.37 286.261C197.254 295.564 203.24 304.52 210.328 312.936C256.389 367.6 332.619 378.406 380.386 337.043C429.014 294.94 430.514 215.282 383.88 159.572C355.635 125.819 316.233 108.632 278.886 109.857C257.353 110.571 236.235 96.9113 225.2 76.1045C220.445 67.1334 214.656 58.4753 207.838 50.3317C161.71 -4.78399 85.8309 -15.7332 37.7625 25.5703L37.7549 25.5756Z" fill="#141414"/>
</svg>
