<svg xmlns="http://www.w3.org/2000/svg" width="315" height="316" viewBox="0 0 315 316" fill="none">
    <path
        d="M101.537 307.043C98.2485 302.261 101.367 294.745 111.075 284.073C119.448 274.863 131.802 264.474 145.851 254.816C159.9 245.158 174.025 237.352 185.63 232.829C199.074 227.594 207.207 227.367 210.496 232.155L205.286 235.733C204.851 235.103 200.636 233.761 187.923 238.72C176.765 243.067 163.094 250.633 149.43 260.026C135.765 269.413 123.808 279.468 115.75 288.326C106.571 298.418 106.313 302.835 106.741 303.465L101.531 307.043H101.537Z"
        fill="#F9A723" />
    <path
        d="M127.89 271.309H124.343C119.278 275.682 114.786 279.991 111.075 284.067C110.716 284.464 110.363 284.861 110.017 285.245C111.857 286.763 112.934 288.912 113.469 290.928C114.162 290.102 114.918 289.233 115.75 288.319C118.957 284.791 122.793 281.075 127.103 277.288L127.89 271.309Z"
        fill="#EF7F1B" />
    <path
        d="M101.537 307.043C98.2485 302.261 101.367 294.745 111.075 284.073C119.448 274.863 131.802 264.474 145.851 254.816C159.9 245.158 174.025 237.352 185.63 232.829C199.074 227.594 207.207 227.367 210.496 232.155"
        stroke="#1C1C26" stroke-width="1.56535" stroke-linecap="round" stroke-linejoin="round" />
    <path
        d="M205.286 235.727C204.851 235.097 200.636 233.755 187.923 238.713C176.765 243.06 163.094 250.627 149.43 260.02C135.765 269.407 123.808 279.462 115.75 288.319C106.571 298.412 106.313 302.828 106.741 303.458"
        stroke="#1C1C26" stroke-width="1.56535" stroke-linecap="round" stroke-linejoin="round" />
    <path
        d="M123.014 259.73C123.096 255.396 207.862 232.987 210.174 240.465C212.493 247.943 167.158 274.365 167.158 274.365C167.158 274.365 133.415 272.355 123.007 259.73H123.014Z"
        fill="#1C1C26" />
    <path
        d="M110.225 227.714C134.089 225.679 127.191 274.976 127.191 274.976C127.191 274.976 214.515 265.016 212.852 261.69C194.966 225.88 198.28 208.448 198.28 208.448L110.231 227.72L110.225 227.714Z"
        fill="#EAA98C" />
    <path
        d="M174.39 208.442L110.225 227.714C124.551 226.491 127.789 243.772 128.092 257.777C135.79 245.807 133.308 227.203 174.397 208.442H174.39Z"
        fill="#8E665B" />
    <path
        d="M142.311 260.429C143.52 258.344 144.673 256.271 145.788 254.174C146.903 252.082 147.943 249.965 148.926 247.817C149.442 246.752 149.852 245.65 150.343 244.572L150.986 242.922C151.213 242.374 151.421 241.819 151.61 241.259C152.454 239.041 153.084 236.76 153.808 234.454C153.682 236.855 153.355 239.268 152.725 241.599C152.139 243.949 151.32 246.235 150.337 248.447C149.367 250.664 148.214 252.8 146.885 254.816C145.555 256.832 144.075 258.76 142.317 260.423L142.311 260.429Z"
        fill="#1C1C26" />
    <path
        d="M110.225 227.714C134.089 225.679 127.191 274.976 127.191 274.976C127.191 274.976 214.515 265.016 212.852 261.69C194.966 225.88 198.28 208.448 198.28 208.448L110.231 227.72L110.225 227.714Z"
        stroke="#1C1C26" stroke-width="1.56535" stroke-miterlimit="10" />
    <path
        d="M154.432 221.615C154.35 221.615 154.262 221.621 154.18 221.621C152.309 221.678 150.476 221.672 148.667 221.621C139.583 226.724 131.758 230.101 125.03 232.161C124.412 232.357 123.801 232.533 123.203 232.697C123.203 232.697 123.199 232.699 123.19 232.703C122.592 232.873 122.006 233.031 121.426 233.169H121.42C114.729 234.864 109.223 235.179 104.7 234.612C103.994 234.524 103.314 234.417 102.659 234.284C101.613 234.089 100.624 233.831 99.6912 233.535H99.6849C94.1283 231.777 90.5436 228.539 88.2882 225.42C80.388 214.465 75.8835 191.293 74.6109 183.897C74.3526 182.423 74.2266 181.572 74.2266 181.572C61.0911 181.723 58.7664 174.85 61.4376 165.917C65.4444 152.517 71.1207 145.75 77.4585 139.513C77.0364 94.5189 90.9216 63.0756 149.499 61.4061C193.996 60.1335 240.036 77.2254 246.229 127.039C254.129 190.506 201.802 220.16 154.432 221.615Z"
        fill="#EAA98C" />
    <path d="M146.929 128.356C133.258 175.304 144.409 170.428 164.273 172.305L146.929 128.356Z"
        fill="#B28170" />
    <path
        d="M88.2882 225.414C94.3866 233.862 110.187 243.778 148.579 222.207C150.387 222.258 152.221 222.264 154.085 222.207C177.906 221.527 203.024 213.564 221.13 197.763L169.237 175.657C169.237 175.657 170.768 195.004 146.79 209.803C126.321 222.44 105.809 230.7 86.562 222.755C87.1164 223.7 87.6897 224.595 88.2819 225.414H88.2882Z"
        fill="#EAA98C" />
    <path
        d="M78.687 176.11C72.5823 175.392 63.7245 175.417 60.4926 170.913C60.1083 177.282 63.6804 181.698 74.2329 181.572C74.2329 181.572 74.34 182.29 74.5542 183.55C82.4922 181.793 86.4234 177.017 78.687 176.11Z"
        fill="#B28170" />
    <path
        d="M75.5025 151.077C78.1598 147.607 79.5191 144.186 78.5385 143.435C77.5579 142.684 74.6088 144.887 71.9514 148.357C69.2941 151.826 67.9348 155.247 68.9154 155.998C69.896 156.749 72.8451 154.546 75.5025 151.077Z"
        fill="#FFC1A9" />
    <path
        d="M95.0481 123.291C108.158 108.146 121.829 118.761 126.044 131.834C130.259 144.906 100.674 133.78 100.674 133.78L95.0418 123.291H95.0481Z"
        fill="#B28170" />
    <path
        d="M78.4791 119.026C109.897 116.443 141.366 80.388 141.366 80.388L93.4101 81.7551C84.7665 91.4067 80.3061 104.107 78.4791 119.026Z"
        fill="#B28170" />
    <path
        d="M76.5828 186.064C76.6773 186.045 76.7655 186.026 76.86 186.007C76.9482 185.989 77.0427 185.982 77.1309 185.97C76.9482 185.995 76.7655 186.026 76.5828 186.064ZM79.002 186.335C79.5312 186.448 80.0919 186.587 80.6715 186.757C80.0919 186.593 79.5312 186.455 79.002 186.335ZM79.9596 188.716C80.5329 188.842 81.1062 188.987 81.6669 189.157C81.1062 188.994 80.5329 188.849 79.9596 188.716ZM81.7551 187.992C81.7929 187.998 81.8244 188.011 81.8622 188.024C81.9 188.036 81.9378 188.055 81.9756 188.068C81.9 188.042 81.8244 188.017 81.7551 187.992ZM82.0008 186.007C82.0638 186.014 82.1331 186.02 82.1961 186.033C82.2276 186.039 82.2528 186.045 82.2843 186.052C82.1898 186.033 82.0953 186.02 82.0008 186.007ZM89.082 188.326C89.2017 188.395 89.3151 188.458 89.4348 188.534C89.46 188.546 89.4789 188.559 89.4978 188.578C89.3592 188.49 89.2143 188.408 89.082 188.326ZM105.185 188.427C105.323 188.433 105.456 188.427 105.575 188.401C105.449 188.427 105.323 188.439 105.185 188.427ZM112.499 197.782C112.594 197.877 112.676 197.952 112.739 198.003C112.663 197.927 112.581 197.851 112.499 197.782ZM111.976 197.221C111.976 197.221 111.92 197.234 111.888 197.24C112.083 197.404 112.279 197.574 112.468 197.751C112.329 197.612 112.159 197.429 111.976 197.221Z"
        fill="#B28170" />
    <path
        d="M203.881 208.624C230.851 194.531 247.01 168.72 246.229 138.096C246.065 129.963 245.02 121.779 242.676 113.973C236.269 93.0132 221.073 78.5925 201.014 70.4781C181.56 62.6913 160.108 60.9651 139.369 62.8236C120.525 64.6254 101.134 70.9443 90.0774 87.2865C79.8273 102.539 78.1893 121.584 78.246 139.507V139.847L78.0066 140.08C74.6613 143.35 71.5554 146.834 69.0543 150.74C66.528 154.627 64.6191 158.899 63.1008 163.302C62.0046 166.591 60.9399 169.854 61.3368 173.294C62.181 180.022 69.3126 180.867 74.9007 180.791C77.3514 194.475 81.7551 216.424 90.7137 226.926C98.7273 235.696 111.951 235.412 122.648 232.483C131.758 230.259 139.873 225.628 148.579 222.214C144.843 225.124 140.647 227.285 136.345 229.194C121.962 235.614 101.77 241.233 89.3529 228.186C84.6027 222.799 82.0575 215.825 79.7643 209.166C76.8852 200.195 74.8818 191.01 73.4454 181.698C73.4454 181.692 74.2329 182.366 74.2329 182.366C70.3584 182.341 65.9547 181.95 62.8362 179.336C60.5745 177.496 59.5791 174.46 59.6799 171.625C59.7051 168.582 60.6501 165.646 61.6077 162.792C64.5372 153.714 69.9615 145.473 76.8978 138.953L76.6647 139.52C76.608 124.879 77.6916 109.79 83.475 96.1569C88.0866 84.9933 96.6231 75.5181 107.377 69.9804C119.669 63.4914 133.724 61.2927 147.458 60.7068C172.935 59.7492 200.063 64.1781 220.821 79.8903C234.454 90.2349 242.997 104.832 246.147 121.584C251.433 149.512 244.427 178.145 222.724 197.385C217.249 202.337 211.119 206.539 204.611 210.01L203.868 208.618L203.881 208.624Z"
        fill="#1C1C26" />
    <path
        d="M81.7488 205.997C81.7488 205.997 78.183 212.48 78.7059 218.497L80.199 216.222C80.199 216.222 77.9247 228.142 86.5431 238.927V234.832C86.5431 234.832 90.5436 241.907 98.4627 244.346L97.7193 240.956C97.7193 240.956 107.069 245.183 120.11 242.978C133.151 240.773 158.464 231.286 165.999 214.011L163.573 215.554C163.573 215.554 169.659 206.363 160.619 180.974C151.578 155.585 160.619 132.962 160.619 132.962L142.229 129.824C142.229 129.824 138.165 146.853 138.65 168.846L136.779 163.391C136.779 163.391 134.744 167.939 134.908 175.379L134.177 173.225C134.177 173.225 130.946 179.544 132.168 187.715C133.39 195.886 123.203 189.044 116.985 195.054L118.163 187.356C118.163 187.356 115.807 188.338 114.263 189.964L115.655 186.549L112.48 187.085L114.427 183.683C114.427 183.683 106.766 179.846 98.4627 179.481L102.841 178.321C102.841 178.321 86.6061 174.945 78.3846 177.156C78.3846 177.156 74.3463 179.884 73.0485 186.266L74.3463 185.831L74.5101 188.206L77.3199 188.162L79.5501 189.239L80.7723 188.912L82.8072 190.21L84.3507 189.315L89.7183 191.268L94.0275 192.112C94.0275 192.112 97.6059 195.432 104.435 199.653C104.435 199.653 104.511 209.884 96.9948 211.025C89.4789 212.165 88.9938 203.711 88.9938 203.711L87.8787 205.651L85.113 201.6L81.7614 206.01L81.7488 205.997Z"
        fill="#624A49" />
    <path
        d="M156.813 162.836C155.856 150.142 158.407 139.847 159.793 135.368L142.071 130.517C141.75 131.979 140.994 135.689 140.27 140.988C143.546 153.985 148.346 156.668 148.346 156.668L146.154 149.719C146.154 149.719 150.06 159.232 152.372 161.059L151.641 157.399C151.641 157.399 153.67 159.951 156.813 162.836Z"
        fill="#3D3128" />
    <path
        d="M120.11 242.978C133.151 240.773 158.464 231.286 165.999 214.011L163.573 215.554C163.573 215.554 169.659 206.363 160.619 180.974C160.524 180.709 160.442 180.438 160.348 180.174C158.521 184.08 156.744 189 155.988 194.449L155.314 190.159L152.599 198.664L153.846 181.673C153.846 181.673 147.344 190.222 146.04 203.553L144.743 196.239C144.743 196.239 141.164 200.932 140.351 206.634L141 198.67C141 198.67 136.124 203.181 134.335 207.031L135.86 199.981C135.86 199.981 132.804 202.091 131.21 205.021L132.061 201.279C132.061 201.279 121.817 204.366 117.59 208.429L121.332 203.553C121.332 203.553 115.233 206.64 113.57 208.429L117.268 203.389L112.48 204.366L116.456 200.787L112.48 200.951V199.023L110.823 200.302L111.863 195.672L101.745 191.583H105.424C105.424 191.583 96.8625 187.897 89.6679 187.091L98.9478 185.655C98.9478 185.655 91.7217 183.632 82.7694 185.384L86.1084 183.884L80.4069 185.119L81.7488 183.235L78.0885 185.119L74.8818 181.295C74.1384 182.612 73.458 184.256 73.0485 186.266L74.3463 185.831L74.5101 188.206L77.3199 188.162L79.5501 189.239L80.7723 188.912L82.8072 190.21L84.3507 189.315L89.7183 191.268L94.0275 192.112C94.0275 192.112 97.6059 195.432 104.435 199.653C104.435 199.653 104.511 209.884 96.9948 211.025C89.4789 212.165 88.9938 203.71 88.9938 203.71L87.8787 205.651L85.113 201.6L81.7614 206.01C81.7614 206.01 78.1956 212.493 78.7185 218.509L80.2116 216.235C80.2116 216.235 77.9373 228.154 86.5557 238.94V234.845C86.5557 234.845 90.5562 241.92 98.4753 244.358L97.7319 240.969C97.7319 240.969 107.081 245.196 120.122 242.991L120.11 242.978Z"
        fill="#3A312F" />
    <path
        d="M122.371 228.86C125.42 231.059 130.372 231.292 130.372 231.292C111.428 235.318 101.518 228.86 101.518 228.86L105.418 233.245C93.4668 229.83 91.5201 219.586 91.5201 219.586C90.2979 223.001 89.2017 228.243 89.2017 228.243L88.3512 223.121L87.3999 225.553L85.491 219.095C83.1852 223.656 82.278 227.827 81.9504 230.895C82.9458 233.509 84.4137 236.25 86.5494 238.921V234.826C86.5494 234.826 90.5499 241.901 98.469 244.339L97.7256 240.95C97.7256 240.95 107.075 245.177 120.116 242.972C133.157 240.767 158.47 231.279 166.005 214.005L163.58 215.548C163.58 215.548 166.093 211.737 165.482 202.261C162.735 208.732 158.351 212.253 158.351 212.253V208.366C153.348 215.315 145.058 218.364 145.058 218.364H150.677C139.835 229.219 122.378 228.854 122.378 228.854L122.371 228.86Z"
        fill="#282525" />
    <path
        d="M81.7488 205.997C81.7488 205.997 78.183 212.48 78.7059 218.497L80.199 216.222C80.199 216.222 77.9247 228.142 86.5431 238.927V234.832C86.5431 234.832 90.5436 241.907 98.4627 244.346L97.7193 240.956C97.7193 240.956 107.069 245.183 120.11 242.978C133.151 240.773 158.464 231.286 165.999 214.011L163.573 215.554C163.573 215.554 169.659 206.363 160.619 180.974C151.578 155.585 160.619 132.962 160.619 132.962L142.229 129.824C142.229 129.824 138.165 146.853 138.65 168.846L136.779 163.391C136.779 163.391 134.744 167.939 134.908 175.379L134.177 173.225C134.177 173.225 130.946 179.544 132.168 187.715C133.39 195.886 123.203 189.044 116.985 195.054L118.163 187.356C118.163 187.356 115.807 188.338 114.263 189.964L115.655 186.549L112.48 187.085L114.427 183.683C114.427 183.683 106.766 179.846 98.4627 179.481L102.841 178.321C102.841 178.321 86.6061 174.945 78.3846 177.156C78.3846 177.156 74.3463 179.884 73.0485 186.266L74.3463 185.831L74.5101 188.206L77.3199 188.162L79.5501 189.239L80.7723 188.912L82.8072 190.21L84.3507 189.315L89.7183 191.268L94.0275 192.112C94.0275 192.112 97.6059 195.432 104.435 199.653C104.435 199.653 104.511 209.884 96.9948 211.025C89.4789 212.165 88.9938 203.711 88.9938 203.711L87.8787 205.651L85.113 201.6L81.7614 206.01L81.7488 205.997Z"
        stroke="#1C1C26" stroke-width="1.5407" stroke-miterlimit="10" />
    <path
        d="M173.596 167.359L145.24 163.907C145.24 163.907 144.85 157.557 145.902 139.413C146.954 121.269 111.718 137.642 125.131 88.956C71.5617 116.588 54.747 96.0876 54.1548 83.9034C54.1548 83.9034 59.7681 93.744 71.1774 94.5189C71.1774 94.5189 60.0327 90.3231 56.8827 73.2123C53.7264 56.1015 68.8779 47.8611 68.8779 47.8611C68.8779 47.8611 62.3259 64.5183 75.7449 72.0594C75.7449 72.0594 72.072 68.2227 72.5508 59.5854C72.5508 59.5854 75.789 69.5394 85.1004 73.1745C85.1004 73.1745 81.3078 70.3521 83.0781 64.6128C83.0781 64.6128 86.0391 72.1728 92.8305 72.4689C99.6219 72.765 128.829 45.8577 186.574 60.3351C244.32 74.8125 257.613 124.513 247.426 158.193C247.426 158.193 238.455 202.57 197.253 213.753C197.253 213.753 168.922 199.439 173.59 167.353L173.596 167.359Z"
        fill="#624A49" />
    <path
        d="M72.5508 59.598C72.072 68.229 75.7449 72.072 75.7449 72.072C70.8309 69.3063 68.6007 65.3247 67.7376 61.3872C66.276 67.5297 63.7749 75.5118 59.7051 82.278C61.1226 85.3209 62.7858 87.6645 64.4112 89.4474C68.4369 81.585 74.8314 75.2346 80.5833 70.6545C74.718 66.2382 72.5508 59.598 72.5508 59.598Z"
        fill="#9B8175" />
    <path
        d="M56.448 86.9652C56.0133 87.5007 55.566 88.0236 55.0998 88.5276C56.1771 91.5516 58.2057 94.6575 61.4376 97.1901C61.8786 95.4828 62.4393 93.8322 63.1134 92.232C60.1587 90.6822 57.9411 88.641 56.448 86.9589V86.9652Z"
        fill="#9B8175" />
    <path
        d="M83.0844 64.6191C82.5552 66.339 82.5237 67.788 82.7442 68.9913C83.4246 68.481 84.0924 68.0022 84.7413 67.5486C83.6199 65.9673 83.0907 64.6191 83.0907 64.6191H83.0844Z"
        fill="#9B8175" />
    <path
        d="M126.592 80.2746L121.496 90.7767C122.693 90.1908 123.896 89.5923 125.131 88.956C118.062 114.603 124.501 122.195 132.023 126.29C129.749 122.73 128.01 118.012 128.646 112.247C128.646 112.247 132.527 124.261 143.136 128.463C143.136 128.463 140.465 124.677 139.646 121.502C139.646 121.502 145.669 127.38 147.767 132.514L148.39 124.425C148.39 124.425 152.391 132.205 151.232 138.461C151.232 138.461 154.665 136.168 156.24 133.075C156.24 133.075 155.944 139.318 153.392 142.676C153.392 142.676 158.842 140.2 162.03 136.326C162.03 136.326 156.29 142.953 160.165 149.19C161.822 151.855 193.397 167.271 193.397 167.271L179.185 194.424C179.185 194.424 194.859 198.022 204.441 174.85C204.441 174.85 202.778 189.384 190.304 197.379C190.304 197.379 203.572 195.621 212.877 179.777C212.877 179.777 207.465 196.314 194.418 203.194C194.418 203.194 208.492 200.435 216.014 189.97C216.014 189.97 212.751 198.198 205.827 203.515C205.827 203.515 215.416 200.315 222.031 192.805C222.031 192.805 219.246 198.904 212.757 203.314C212.757 203.314 216.531 203.118 222.195 200.605C228.627 195.111 233.522 188.811 237.208 182.769C224.627 156.763 126.599 80.2683 126.599 80.2683L126.592 80.2746Z"
        fill="#3A312F" />
    <path
        d="M156.366 126.189C156.366 126.189 159.522 132.073 158.678 136.735C158.678 136.735 162.742 133.85 164.581 132.042L163.888 135.551L171.02 131.198L125.899 86.1714L122.711 88.2567L121.489 90.7767C122.686 90.1908 123.889 89.5923 125.124 88.956C119.706 108.612 122.226 117.659 127.084 122.661C124.86 117.325 123.959 110.622 128.161 104C128.161 104 128.432 113.261 136.597 120.349C136.597 120.349 133.459 115.233 133.629 110.105C133.629 110.105 142.846 116.997 145.763 125.131C145.763 125.131 146.897 120.135 146.047 115.12C146.047 115.12 153.203 122.315 154.079 131.5C154.079 131.5 156.108 129.856 156.366 126.189Z"
        fill="#282525" />
    <path
        d="M202.432 154.029C202.432 154.029 204.643 172.103 197.442 180.47C197.442 180.47 205.582 174.623 208.826 162.332C208.826 162.332 209.198 177.805 203.792 185.037C203.792 185.037 213.633 179.38 219.12 166.541C219.12 166.541 216.033 182.234 209.563 190.72C209.563 190.72 220.072 183.135 224.545 172.733C224.545 172.733 221.659 186.965 216.147 194.809C216.147 194.809 227.134 186.48 230.53 177.213C230.53 177.213 228.577 189.46 222.611 196.459C222.611 196.459 226.806 194.172 232.092 190.184C234.007 187.721 235.715 185.226 237.208 182.776C233.371 174.844 221.571 162.206 207.037 148.478L202.432 154.029Z"
        fill="#282525" />
    <path
        d="M105.273 71.2278C100.157 75.7638 92.8494 76.0977 92.8494 76.0977C94.8213 76.8978 97.02 77.0175 97.02 77.0175C91.3374 78.7626 81.4779 77.4585 81.4779 77.4585C88.3008 81.3519 99.8424 80.0478 99.8424 80.0478C90.4239 83.79 76.5387 81.711 76.5387 81.711C85.2579 88.011 101.298 85.8627 101.298 85.8627C88.6473 91.4067 71.5554 86.7132 71.5554 86.7132C83.601 98.4438 100.598 94.059 100.598 94.059C100.598 94.059 96.5034 99.2124 87.7212 102.18C97.461 100.838 109.696 96.9066 124.904 89.082C129.83 75.8898 109.607 67.3911 105.267 71.2341L105.273 71.2278Z"
        fill="#3A312F" />
    <path
        d="M137.025 80.9928C116.329 93.1707 103.389 94.941 103.389 94.941L114.402 89.6238C114.402 89.6238 99.9306 95.4639 85.4532 92.4651C85.4532 92.4651 100.592 90.9972 109.475 83.727C109.475 83.727 100.378 84.7791 93.9267 83.8278C93.9267 83.8278 106.325 82.3347 120.336 74.4534C134.341 66.5721 137.031 80.9928 137.031 80.9928H137.025Z"
        fill="#282525" />
    <path
        d="M71.5617 86.7069C79.3296 93.0699 89.3277 95.1867 99.1116 93.3912C108.763 91.6902 117.854 87.4125 126.088 82.1646L126.97 83.4687C124.916 84.9114 122.768 86.2155 120.582 87.4377C105.916 95.7789 84.3759 100.8 71.568 86.7006L71.5617 86.7069Z"
        fill="#1C1C26" />
    <path
        d="M141.265 134.662C142.317 116.518 111.718 137.649 125.137 88.956C71.5682 116.588 54.7535 96.0876 54.1613 83.9034C54.1613 83.9034 59.7746 93.744 71.1839 94.5189C71.1839 94.5189 60.0392 90.3231 56.8892 73.2123C53.7329 56.1015 68.8844 47.8611 68.8844 47.8611C68.8844 47.8611 62.3324 64.5183 75.7514 72.0594C75.7514 72.0594 72.0785 68.2227 72.5573 59.5854C72.5573 59.5854 75.7955 69.5394 85.1069 73.1745C85.1069 73.1745 81.3143 70.3521 83.0846 64.6128C83.0846 64.6128 86.0456 72.1728 92.837 72.4689C99.6284 72.765 128.835 45.8577 186.581 60.3351C244.327 74.8125 257.62 124.513 247.433 158.193C247.433 158.193 238.462 202.57 197.26 213.753C197.26 213.753 168.928 199.439 173.597 167.353"
        stroke="#1C1C26" stroke-width="1.5407" stroke-miterlimit="10" />
    <path
        d="M200.8 149.398C197.959 136.496 186.026 128.69 173.294 132.646C161.614 136.275 154.659 148.541 157.525 160.429C157.878 161.891 158.357 163.29 158.955 164.606C161.009 169.155 161.69 174.189 161.211 179.153C161.015 181.15 161.261 183.229 162.011 185.27C164.329 191.577 171.133 195.735 177.616 193.983C191.129 190.342 205.437 170.396 200.806 149.392L200.8 149.398Z"
        fill="#EAA98C" />
    <path
        d="M173.288 132.64C169.079 133.951 165.482 136.382 162.742 139.52C178.265 142.991 193.227 160.94 199.515 170.484C201.707 164.027 202.432 156.775 200.8 149.398C197.959 136.496 186.026 128.69 173.294 132.646L173.288 132.64Z"
        fill="#B28170" />
    <path
        d="M163.435 188.105C166.919 191.425 171.398 194.273 176.356 193.397C181.931 192.213 186.663 188.528 190.411 184.357C199.37 174.157 203.402 158.968 198.645 146.021C188.502 121.634 154.823 133.585 158.023 158.357C158.395 161.475 159.8 164.191 160.026 167.391C159.151 166.011 158.288 164.777 157.601 163.29C155.717 158.804 155.566 153.651 156.75 148.963C159.869 135.96 174.277 127.222 187.135 131.802C196.856 135.223 202.136 144.799 202.621 154.703C203.622 169.054 196.598 183.941 184.496 191.829C181.742 193.504 178.649 194.96 175.386 195.187C170.497 195.508 165.167 192.767 163.435 188.112V188.105Z"
        fill="#1C1C26" />
    <path
        d="M174.359 170.031C186.921 173.08 198.173 159.226 190.6 147.659C183.028 136.093 168.739 143.64 166.226 155.534C163.706 167.435 172.607 165.854 174.365 170.031H174.359Z"
        fill="#B28170" />
    <path
        d="M172.444 167.87C184.187 163.359 180.703 146.355 171.083 149.915C161.456 153.474 168.342 165.425 169.659 166.219C170.976 167.013 172.444 167.864 172.444 167.864V167.87Z"
        fill="#8E665B" />
    <path
        d="M171.751 178.889C174.548 171.366 175.934 170.843 168.5 166.207C165.52 164.405 164.966 160.486 165.085 157.361C165.545 147.703 172.853 139.488 183.065 141.655C194.513 143.709 197.952 159.863 190.292 167.668C195.968 159.737 192.679 145.883 182.662 143.545C173.628 141.479 167.404 148.982 166.975 157.45C166.893 160.077 167.171 163.214 169.527 164.714C171.335 166.043 173.319 167.095 174.686 168.985C176.961 172.374 174.233 176.501 171.751 178.889Z"
        fill="#1C1C26" />
    <path
        d="M179.443 160.14C179.771 158.206 179.859 156.221 179.292 154.457C178.259 150.828 173.937 149.31 170.686 150.772C169.105 151.446 167.882 152.75 167.423 154.369L165.564 153.814C166.169 151.654 167.933 149.858 170.024 149.108C173.08 147.93 176.847 148.749 178.889 151.345C180.86 153.852 180.571 157.424 179.437 160.14H179.443Z"
        fill="#1C1C26" />
    <path
        d="M98.1603 158.911C116.348 158.395 119.108 138.417 119.108 138.417C119.108 138.417 110.855 122.277 97.1271 122.667C97.1271 122.667 91.6965 126.466 92.1123 140.944C92.5281 155.421 98.1603 158.905 98.1603 158.905V158.911Z"
        fill="white" />
    <path
        d="M97.1208 122.674C97.1208 122.674 94.2858 124.664 92.8683 131.235C97.839 135.185 112.146 130.92 119.051 138.732C119.083 138.537 119.101 138.424 119.101 138.424C119.101 138.424 110.848 122.283 97.1208 122.674Z"
        fill="#E3EDFC" />
    <path
        d="M98.2299 158.871C102.33 158.754 105.424 150.567 105.14 140.586C104.856 130.604 101.302 122.607 97.2013 122.723C93.1008 122.84 90.0069 131.026 90.2909 141.008C90.575 150.99 94.1294 158.987 98.2299 158.871Z"
        fill="#1C1C26" />
    <path
        d="M107.006 135.053C107.069 137.227 105.947 139.022 104.504 139.066C103.062 139.11 101.84 137.378 101.777 135.204C101.714 133.031 102.835 131.235 104.278 131.191C105.72 131.147 106.943 132.88 107.006 135.053Z"
        fill="white" />
    <path
        d="M117.734 135.034C117.142 133.969 116.474 132.949 115.762 131.947C114.326 129.956 112.644 128.123 110.722 126.517C110.225 126.139 109.765 125.698 109.236 125.364L107.661 124.312C107.119 123.984 106.546 123.707 105.991 123.398C105.708 123.253 105.43 123.096 105.141 122.957L104.252 122.598C101.6 121.388 98.3367 120.865 95.7726 120.544L91.4067 125.817L96.6294 124.582C98.8281 124.658 101.083 124.803 103.213 125.515L104.026 125.735C104.29 125.83 104.548 125.937 104.813 126.038C105.33 126.252 105.871 126.435 106.382 126.674L107.9 127.455C108.417 127.701 108.87 128.054 109.362 128.35C111.289 129.597 113.085 131.103 114.685 132.823C115.479 133.692 116.241 134.587 116.941 135.544C117.652 136.496 118.295 137.472 119.095 138.417C118.868 137.195 118.339 136.08 117.728 135.034H117.734Z"
        fill="#1C1C26" />
    <path
        d="M94.8591 122.384C96.2199 120.135 99.036 119.366 101.487 119.316C107.484 119.278 113.18 122.422 116.909 126.989C117.646 127.903 118.276 128.885 118.862 129.887C118.182 128.942 117.432 128.06 116.645 127.216C112.751 123.165 107.213 120.317 101.531 120.525C99.4707 120.664 97.1586 121.212 96.0309 123.058L94.8591 122.377V122.384Z"
        fill="#1C1C26" />
    <path d="M137.208 55.1565C181.15 26.8758 296.251 53.8776 250.135 155.963L137.208 55.1565Z"
        fill="#7C49AD" />
    <path
        d="M243.287 96.516C237.145 107.774 223.316 94.5504 203.307 83.6388C183.298 72.7272 168.084 60.8328 170.623 55.2951C174.126 47.6595 198.179 45.4545 218.182 56.3661C238.19 67.2777 249.423 85.2516 243.287 96.516Z"
        fill="#9F58D6" />
    <path
        d="M250.135 155.963C256.555 141.744 259.85 128.986 260.644 117.627C247.773 129.497 208.291 112.083 153.279 48.0627C147.307 49.7952 141.857 52.164 137.208 55.1565L250.135 155.963Z"
        fill="#623893" />
    <path d="M137.208 55.1565C181.15 26.8758 296.251 53.8776 250.135 155.963L137.208 55.1565Z"
        stroke="#1C1C26" stroke-width="1.5407" stroke-miterlimit="10" />
    <path
        d="M229.49 189.359L105.191 68.1345C103.314 66.3012 103.736 63.1764 106.029 61.9038L136.842 44.8749C138.316 44.0622 140.143 44.2764 141.385 45.4167L254.602 149.108C255.95 150.343 256.265 152.347 255.358 153.94L235.626 188.496C234.354 190.72 231.323 191.148 229.49 189.359Z"
        fill="#9F58D6" />
    <path
        d="M131.172 51.6537L136.616 48.7746C137.869 48.1131 139.4 48.3147 140.44 49.2723L249.682 150.444C250.778 151.458 251.061 153.077 250.381 154.407L247.779 159.484C246.777 161.444 244.175 161.91 242.556 160.417L130.473 57.0465C128.785 55.4904 129.144 52.731 131.172 51.6537Z"
        fill="#B364FF" />
    <path
        d="M131.828 73.4832C122.932 64.5183 118.301 59.3397 116.525 56.1015L106.029 61.9038C103.73 63.1764 103.307 66.3012 105.191 68.1345L229.49 189.359C231.323 191.148 234.354 190.72 235.626 188.496L245.965 170.384C234.7 182.921 156.53 98.3808 131.828 73.4832Z"
        fill="#7C49AD" />
    <path
        d="M229.49 189.359L105.191 68.1345C103.314 66.3012 103.736 63.1764 106.029 61.9038L136.842 44.8749C138.316 44.0622 140.143 44.2764 141.385 45.4167L254.602 149.108C255.95 150.343 256.265 152.347 255.358 153.94L235.626 188.496C234.354 190.72 231.323 191.148 229.49 189.359Z"
        stroke="#1C1C26" stroke-width="1.5407" stroke-miterlimit="10" />
    <path d="M111.384 74.1762C107.787 66.4902 109.607 63.5418 148.409 51.8553" stroke="#1C1C26"
        stroke-width="1.5407" stroke-miterlimit="10" />
    <path d="M128.463 90.8334C127.197 82.467 127.493 80.8605 162.364 64.6317" stroke="#1C1C26"
        stroke-width="1.5407" stroke-miterlimit="10" />
    <path d="M147.943 109.828C143.823 99.1746 149.455 98.4438 182.442 83.0151" stroke="#1C1C26"
        stroke-width="1.5407" stroke-miterlimit="10" />
    <path d="M166.78 128.199C166.635 125.181 199.206 98.3745 199.206 98.3745" stroke="#1C1C26"
        stroke-width="1.5407" stroke-miterlimit="10" />
    <path d="M184.811 145.782C194.487 146.04 196.069 150.639 215.731 113.507" stroke="#1C1C26"
        stroke-width="1.5407" stroke-miterlimit="10" />
    <path d="M206.816 167.234C221.288 167.429 221.08 163.819 231.412 127.72" stroke="#1C1C26"
        stroke-width="1.5407" stroke-miterlimit="10" />
    <path d="M223.549 183.601C231.185 185.233 233.793 189.983 246.733 141.8" stroke="#1C1C26"
        stroke-width="1.5407" stroke-miterlimit="10" />
    <path
        d="M115.479 116.764C104.605 103.44 77.49 106.388 74.9322 110.924C72.3807 115.46 77.5782 122.51 79.4115 122.453C81.2385 122.403 115.479 116.764 115.479 116.764Z"
        fill="#624A49" />
    <path
        d="M74.6676 111.485C72.8028 116.015 77.6601 122.503 79.4115 122.453C81.2385 122.403 115.479 116.764 115.479 116.764C115.473 116.752 115.46 116.745 115.454 116.733C108.366 113.406 97.6185 112.726 97.6185 112.726L100.844 114.899C95.5206 112.568 84.4074 113.967 84.4074 113.967L87.1542 115.945C87.1542 115.945 78.0885 115.466 74.6676 111.479V111.485Z"
        fill="#3A312F" />
    <path
        d="M115.479 116.764C104.605 103.44 77.49 106.388 74.9322 110.924C72.3807 115.46 77.5782 122.51 79.4115 122.453C81.2385 122.403 115.479 116.764 115.479 116.764Z"
        stroke="#1C1C26" stroke-width="1.5407" stroke-miterlimit="10" />
    <path
        d="M69.4449 48.4155C61.4376 56.6874 57.5316 68.355 67.9014 76.5324C76.9797 83.2608 89.3655 82.8891 99.8424 80.0415C94.6134 82.1331 88.9119 83.3112 83.1852 83.0655C67.0572 82.5804 53.6004 70.1946 63 54.1233C64.4805 51.6222 66.3138 49.3794 68.3109 47.3193L69.4449 48.4155Z"
        fill="#1C1C26" />
    <path
        d="M77.2632 194.292C78.3405 195.199 79.5816 195.924 80.955 196.371C82.341 196.781 83.79 196.995 85.2579 197.007C86.7258 197.007 88.2063 196.85 89.6616 196.554C91.1043 196.264 92.5722 195.835 93.8889 195.294L94.5378 196.894C93.0006 197.442 91.5012 197.788 89.9514 198.072C88.4016 198.33 86.8329 198.5 85.2516 198.481C83.6703 198.437 82.0764 198.242 80.5203 197.801C78.9705 197.341 77.5026 196.585 76.167 195.621L77.2695 194.292H77.2632Z"
        fill="#1C1C26" />
    <path d="M89.9451 195.193L96.4278 198.122C96.4278 198.122 95.4135 193.423 89.9451 195.193Z"
        fill="#1C1C26" />
    <path
        d="M103.887 315L118.718 276.072L218.415 253.606C221.231 257.594 224.028 261.885 226.744 266.477C236.962 283.771 243.161 300.554 247.017 315H103.894H103.887Z"
        fill="#C6E2D9" />
    <path
        d="M116.934 315C118.982 314.389 121.181 313.633 123.556 312.707C135.154 308.19 149.279 300.378 163.334 290.72C177.383 281.062 189.737 270.673 198.11 261.463C199.395 260.051 200.561 258.697 201.613 257.393L191.003 259.781C183.059 267.983 172.103 277.017 159.749 285.51C146.084 294.903 132.42 302.463 121.256 306.816C112.619 310.181 107.906 310.64 105.638 310.395L103.881 315H116.928H116.934Z"
        fill="#A6BCB5" />
    <path
        d="M198.217 295.092C212.675 281.679 210.848 257.172 210.848 257.172H213.816C213.816 257.172 215.24 286.562 201.096 296.194L198.217 295.098V295.092Z"
        fill="#EBFFF8" />
    <path
        d="M187.967 294.109C203.83 282.385 204.731 257.828 204.731 257.828L207.68 258.155C207.68 258.155 205.827 287.519 190.701 295.52L187.967 294.109Z"
        fill="#EBFFF8" />
    <path
        d="M103.887 315L118.718 276.072L218.415 253.606C221.231 257.594 224.028 261.885 226.744 266.477C236.962 283.771 243.161 300.554 247.017 315"
        stroke="#1C1C26" stroke-width="1.56535" stroke-linecap="round" stroke-linejoin="round" />
    <path
        d="M123.461 260.165C128.375 273.798 202.999 253.147 209.506 240.792L221.174 258.168C222.245 259.762 221.829 261.916 220.242 262.994C213.797 267.353 196.213 277.553 167.164 282.089C141.133 286.152 127.373 283.393 121.401 281.333C119.24 280.589 118.062 278.265 118.717 276.079L123.467 260.171L123.461 260.165Z"
        fill="#A6BCB5" />
    <path
        d="M198.11 261.463C205.834 252.97 209.381 246.481 208.858 241.769C207.383 243.659 204.504 245.7 200.655 247.766C199.307 250.104 197.07 253.21 193.435 257.21C186.215 265.148 175.858 274.044 163.951 282.561C165.003 282.416 166.068 282.259 167.164 282.089C170.875 281.509 174.397 280.835 177.736 280.098C185.756 273.735 192.749 267.359 198.11 261.463Z"
        fill="#819B92" />
    <path
        d="M123.461 260.165C128.375 273.798 202.999 253.147 209.506 240.792L221.174 258.168C222.245 259.762 221.829 261.916 220.242 262.994C213.797 267.353 196.213 277.553 167.164 282.089C141.133 286.152 127.373 283.393 121.401 281.333C119.24 280.589 118.062 278.265 118.717 276.079L123.467 260.171L123.461 260.165Z"
        stroke="#1C1C26" stroke-width="1.56535" stroke-linecap="round" stroke-linejoin="round" />
    <path
        d="M119.549 273.294C119.549 273.294 129.604 282.738 166.641 276.198C204.826 269.451 219.114 255.1 219.114 255.1"
        stroke="#1C1C26" stroke-width="1.56535" stroke-linecap="round" stroke-linejoin="round" />
    <path d="M219.75 315C200.731 267.945 164.058 281.597 146.588 315.088L219.75 315Z" fill="#A6BCB5" />
    <path d="M219.75 315C200.731 267.945 164.058 281.597 146.588 315.088" stroke="#1C1C26"
        stroke-width="1.56535" stroke-linecap="round" stroke-linejoin="round" />
    <path
        d="M109.614 310.47C105.783 310.47 103.106 309.33 101.537 307.043L106.747 303.465C107.182 304.095 111.397 305.43 124.11 300.479C135.267 296.132 148.938 288.565 162.603 279.172C176.268 269.779 188.225 259.73 196.283 250.872C205.462 240.78 205.72 236.363 205.292 235.733L210.502 232.155C213.791 236.937 210.672 244.453 200.964 255.125C192.591 264.335 180.237 274.724 166.188 284.382C152.139 294.04 138.008 301.846 126.41 306.369C119.385 309.103 113.816 310.47 109.62 310.47H109.614Z"
        fill="#F9A723" />
    <path
        d="M109.614 310.47C113.803 310.47 119.379 309.103 126.403 306.369C138.002 301.852 152.126 294.04 166.181 284.382C180.23 274.724 192.585 264.335 200.957 255.125C210.666 244.453 213.784 236.937 210.496 232.155L209.935 232.539C209.859 236.2 207.081 241.983 199.874 250.954C186.946 267.051 153.966 290.342 132.993 299.861C117.369 306.955 107.503 309.015 102.092 306.659L101.537 307.043C103.106 309.33 105.783 310.47 109.614 310.47Z"
        fill="#EF7F1B" />
    <path
        d="M210.496 232.149C213.784 236.93 210.666 244.446 200.957 255.119C192.585 264.329 180.23 274.718 166.181 284.376C152.132 294.034 138.002 301.839 126.403 306.363C119.379 309.097 113.81 310.464 109.614 310.464C105.783 310.464 103.106 309.324 101.537 307.037"
        stroke="#1C1C26" stroke-width="1.56535" stroke-linecap="round" stroke-linejoin="round" />
    <path
        d="M106.747 303.458C107.182 304.088 111.397 305.424 124.11 300.472C135.267 296.125 148.938 288.559 162.603 279.166C176.268 269.772 188.225 259.724 196.283 250.866C205.462 240.773 205.72 236.357 205.292 235.727"
        stroke="#1C1C26" stroke-width="1.56535" stroke-linecap="round" stroke-linejoin="round" />
</svg>