<svg width="359" height="359" viewBox="0 0 359 359" fill="none" xmlns="http://www.w3.org/2000/svg">
<path d="M115.72 348.957C111.972 343.523 115.526 334.981 126.591 322.852C136.133 312.384 150.213 300.577 166.224 289.601C182.236 278.624 198.333 269.753 211.559 264.612C226.881 258.662 236.15 258.405 239.898 263.846L233.96 267.913C233.465 267.197 228.661 265.672 214.172 271.307C201.456 276.247 185.876 284.846 170.302 295.522C154.729 306.19 141.101 317.618 131.918 327.685C121.457 339.155 121.162 344.174 121.651 344.89L115.713 348.957H115.72Z" fill="#F9A723"/>
<path d="M145.754 308.346H141.712C135.939 313.315 130.82 318.212 126.591 322.845C126.181 323.296 125.779 323.747 125.384 324.184C127.481 325.909 128.709 328.351 129.319 330.642C130.109 329.704 130.97 328.716 131.918 327.678C135.573 323.668 139.945 319.444 144.856 315.141L145.754 308.346Z" fill="#EF7F1B"/>
<path d="M115.72 348.957C111.972 343.523 115.526 334.981 126.591 322.852C136.133 312.384 150.213 300.577 166.224 289.601C182.236 278.624 198.333 269.753 211.559 264.612C226.881 258.662 236.15 258.405 239.898 263.846" stroke="#1C1C26" stroke-width="1.56535" stroke-linecap="round" stroke-linejoin="round"/>
<path d="M233.96 267.906C233.465 267.19 228.661 265.665 214.172 271.3C201.456 276.24 185.876 284.839 170.302 295.515C154.729 306.183 141.101 317.611 131.918 327.678C121.457 339.148 121.162 344.167 121.651 344.883" stroke="#1C1C26" stroke-width="1.56535" stroke-linecap="round" stroke-linejoin="round"/>
<path d="M140.197 295.185C140.29 290.259 236.897 264.791 239.532 273.29C242.174 281.789 190.507 311.818 190.507 311.818C190.507 311.818 152.051 309.534 140.189 295.185H140.197Z" fill="#1C1C26"/>
<path d="M125.621 258.798C152.819 256.485 144.957 312.512 144.957 312.512C144.957 312.512 244.479 301.192 242.583 297.412C222.199 256.715 225.976 236.903 225.976 236.903L125.628 258.805L125.621 258.798Z" fill="#EAA98C"/>
<path d="M198.75 236.896L125.621 258.798C141.949 257.409 145.639 277.049 145.984 292.965C154.758 279.361 151.929 258.218 198.757 236.896H198.75Z" fill="#8E665B"/>
<path d="M162.189 295.98C163.568 293.61 164.882 291.254 166.152 288.87C167.423 286.493 168.608 284.087 169.728 281.645C170.317 280.435 170.783 279.182 171.344 277.958L172.076 276.082C172.334 275.459 172.571 274.829 172.787 274.192C173.749 271.671 174.467 269.08 175.293 266.459C175.149 269.187 174.776 271.929 174.058 274.578C173.39 277.249 172.456 279.848 171.336 282.361C170.231 284.882 168.917 287.309 167.402 289.6C165.887 291.891 164.199 294.082 162.196 295.973L162.189 295.98Z" fill="#1C1C26"/>
<path d="M125.621 258.798C152.819 256.485 144.957 312.512 144.957 312.512C144.957 312.512 244.479 301.192 242.583 297.412C222.199 256.715 225.976 236.903 225.976 236.903L125.628 258.805L125.621 258.798Z" stroke="#1C1C26" stroke-width="1.56535" stroke-miterlimit="10"/>
<path d="M176.003 251.867C175.91 251.867 175.81 251.874 175.716 251.874C173.584 251.939 171.494 251.932 169.434 251.874C159.08 257.674 150.163 261.512 142.494 263.853C141.791 264.075 141.094 264.275 140.412 264.462C140.412 264.462 140.407 264.464 140.398 264.469C139.716 264.662 139.048 264.841 138.387 264.999H138.38C130.755 266.925 124.48 267.283 119.324 266.638C118.52 266.538 117.745 266.416 116.998 266.266C115.806 266.044 114.679 265.75 113.616 265.414H113.609C107.276 263.416 103.191 259.736 100.621 256.192C91.6168 243.741 86.4831 217.406 85.0328 209C84.7384 207.325 84.5948 206.358 84.5948 206.358C69.6245 206.53 66.9751 198.718 70.0194 188.566C74.5859 173.336 81.0551 165.646 88.2781 158.558C87.7971 107.421 103.622 71.6858 170.381 69.7884C221.094 68.3421 273.565 87.7671 280.623 144.381C289.627 216.511 229.99 250.213 176.003 251.867Z" fill="#EAA98C"/>
<path d="M167.452 145.878C151.871 199.234 164.58 193.692 187.219 195.826L167.452 145.878Z" fill="#B28170"/>
<path d="M100.621 256.185C107.571 265.786 125.578 277.056 169.333 252.54C171.394 252.598 173.483 252.605 175.608 252.54C202.756 251.767 231.383 242.717 252.018 224.76L192.876 199.635C192.876 199.635 194.621 221.624 167.294 238.442C143.966 252.805 120.588 262.192 98.6532 253.163C99.285 254.237 99.9384 255.254 100.613 256.185H100.621Z" fill="#EAA98C"/>
<path d="M89.6782 200.151C82.7208 199.334 72.6257 199.363 68.9424 194.244C68.5044 201.482 72.5755 206.502 84.602 206.358C84.602 206.358 84.724 207.175 84.9681 208.607C94.0149 206.609 98.4953 201.182 89.6782 200.151Z" fill="#B28170"/>
<path d="M86.0489 171.7C89.0774 167.757 90.6265 163.869 89.5089 163.015C88.3914 162.161 85.0303 164.666 82.0018 168.609C78.9733 172.552 77.4242 176.44 78.5417 177.294C79.6593 178.147 83.0204 175.643 86.0489 171.7Z" fill="#FFC1A9"/>
<path d="M108.325 140.121C123.266 122.909 138.847 134.973 143.65 149.83C148.454 164.687 114.736 152.043 114.736 152.043L108.318 140.121H108.325Z" fill="#B28170"/>
<path d="M89.4413 135.274C125.248 132.338 161.112 91.3618 161.112 91.3618L106.458 92.9155C96.607 103.885 91.5235 118.319 89.4413 135.274Z" fill="#B28170"/>
<path d="M87.2801 211.463C87.3878 211.442 87.4883 211.42 87.596 211.399C87.6965 211.377 87.8042 211.37 87.9048 211.356C87.6965 211.385 87.4883 211.42 87.2801 211.463ZM90.0372 211.771C90.6403 211.9 91.2794 212.058 91.9399 212.251C91.2794 212.065 90.6403 211.907 90.0372 211.771ZM91.1286 214.478C91.782 214.621 92.4353 214.786 93.0744 214.979C92.4353 214.793 91.782 214.628 91.1286 214.478ZM93.1749 213.654C93.218 213.661 93.2539 213.676 93.2969 213.69C93.34 213.704 93.3831 213.726 93.4262 213.74C93.34 213.712 93.2539 213.683 93.1749 213.654ZM93.4549 211.399C93.5267 211.406 93.6057 211.413 93.6775 211.428C93.7134 211.435 93.7421 211.442 93.778 211.449C93.6703 211.428 93.5626 211.413 93.4549 211.399ZM101.525 214.034C101.662 214.113 101.791 214.184 101.927 214.27C101.956 214.284 101.978 214.299 101.999 214.32C101.841 214.22 101.676 214.127 101.525 214.034ZM119.877 214.148C120.035 214.156 120.186 214.148 120.322 214.12C120.179 214.148 120.035 214.163 119.877 214.148ZM128.213 224.781C128.321 224.888 128.414 224.974 128.486 225.032C128.4 224.946 128.307 224.86 128.213 224.781ZM127.617 224.144C127.617 224.144 127.553 224.158 127.517 224.165C127.739 224.351 127.962 224.545 128.177 224.745C128.019 224.588 127.826 224.38 127.617 224.144Z" fill="#B28170"/>
<path d="M232.359 237.103C263.097 221.086 281.513 191.752 280.623 156.947C280.436 147.704 279.245 138.403 276.574 129.532C269.272 105.71 251.953 89.321 229.092 80.0989C206.92 71.2491 182.473 69.2873 158.836 71.3995C137.361 73.4473 115.261 80.6287 102.66 99.2018C90.9778 116.536 89.111 138.181 89.1756 158.551V158.938L88.9028 159.203C85.0902 162.919 81.5505 166.878 78.7 171.317C75.8208 175.735 73.6453 180.589 71.9149 185.594C70.6656 189.332 69.4522 193.041 69.9045 196.95C70.8666 204.597 78.9944 205.556 85.3631 205.47C88.1561 221.022 93.1749 245.967 103.385 257.903C112.518 267.87 127.589 267.548 139.78 264.218C150.163 261.691 159.41 256.428 169.333 252.547C165.075 255.855 160.294 258.311 155.39 260.481C138.998 267.777 115.986 274.164 101.834 259.335C96.4203 253.213 93.5195 245.287 90.906 237.719C87.6248 227.523 85.3415 217.084 83.7045 206.502C83.7045 206.494 84.602 207.26 84.602 207.26C80.1863 207.232 75.1674 206.788 71.6133 203.817C69.0357 201.726 67.9013 198.275 68.0162 195.053C68.0449 191.594 69.1219 188.258 70.2133 185.014C73.552 174.697 79.7339 165.332 87.6391 157.921L87.3735 158.565C87.3088 141.926 88.5438 124.777 95.135 109.283C100.391 96.5955 110.12 85.8269 122.376 79.5333C136.384 72.1585 152.403 69.6596 168.055 68.9937C197.091 67.9054 228.008 72.9389 251.666 90.7959C267.204 102.553 276.94 119.142 280.53 138.181C286.554 169.921 278.57 202.463 253.835 224.33C247.595 229.958 240.609 234.733 233.192 238.679L232.345 237.096L232.359 237.103Z" fill="#1C1C26"/>
<path d="M93.1677 234.118C93.1677 234.118 89.1038 241.486 89.6998 248.323L91.4014 245.739C91.4014 245.739 88.8095 259.285 98.6317 271.543V266.889C98.6317 266.889 103.191 274.93 112.216 277.701L111.369 273.849C111.369 273.849 122.024 278.653 136.887 276.147C151.749 273.641 180.599 262.858 189.186 243.225L186.422 244.98C186.422 244.98 193.357 234.533 183.054 205.678C172.751 176.824 183.054 151.112 183.054 151.112L162.096 147.546C162.096 147.546 157.465 166.9 158.017 191.895L155.885 185.695C155.885 185.695 153.566 190.864 153.753 199.32L152.92 196.872C152.92 196.872 149.236 204.053 150.629 213.34C152.022 222.626 140.412 214.85 133.325 221.681L134.668 212.932C134.668 212.932 131.983 214.048 130.224 215.896L131.81 212.015L128.192 212.624L130.41 208.757C130.41 208.757 121.679 204.397 112.216 203.982L117.206 202.664C117.206 202.664 98.7035 198.826 89.3336 201.339C89.3336 201.339 84.7312 204.44 83.2521 211.693L84.7312 211.199L84.9179 213.898L88.1202 213.848L90.6619 215.072L92.0548 214.7L94.374 216.175L96.1331 215.158L102.25 217.378L107.162 218.337C107.162 218.337 111.24 222.111 119.023 226.908C119.023 226.908 119.109 238.536 110.543 239.832C101.978 241.128 101.425 231.519 101.425 231.519L100.154 233.724L97.0018 229.12L93.1821 234.132L93.1677 234.118Z" fill="#624A49"/>
<path d="M178.717 185.065C177.626 170.637 180.534 158.938 182.114 153.847L161.916 148.334C161.55 149.995 160.688 154.212 159.863 160.234C163.596 175.005 169.067 178.055 169.067 178.055L166.569 170.158C166.569 170.158 171.02 180.969 173.656 183.046L172.823 178.886C172.823 178.886 175.135 181.786 178.717 185.065Z" fill="#3D3128"/>
<path d="M136.887 276.147C151.749 273.641 180.599 262.858 189.186 243.225L186.422 244.98C186.422 244.98 193.357 234.533 183.054 205.678C182.946 205.378 182.853 205.07 182.745 204.769C180.663 209.208 178.638 214.8 177.777 220.994L177.009 216.118L173.914 225.784L175.336 206.473C175.336 206.473 167.926 216.189 166.44 231.34L164.961 223.027C164.961 223.027 160.882 228.361 159.956 234.841L160.696 225.791C160.696 225.791 155.138 230.917 153.099 235.292L154.837 227.28C154.837 227.28 151.354 229.679 149.538 233.008L150.507 228.755C150.507 228.755 138.833 232.263 134.015 236.882L138.28 231.34C138.28 231.34 131.329 234.848 129.434 236.882L133.649 231.154L128.192 232.263L132.722 228.197L128.192 228.383V226.192L126.303 227.645L127.488 222.383L115.957 217.736H120.15C120.15 217.736 110.393 213.547 102.193 212.631L112.769 210.998C112.769 210.998 104.534 208.7 94.3309 210.69L98.1363 208.986L91.6384 210.39L93.1677 208.249L88.9961 210.39L85.3415 206.044C84.4943 207.54 83.7188 209.409 83.2521 211.693L84.7312 211.199L84.9179 213.898L88.1202 213.848L90.6619 215.072L92.0548 214.7L94.374 216.175L96.1331 215.158L102.25 217.378L107.162 218.337C107.162 218.337 111.24 222.111 119.023 226.908C119.023 226.908 119.109 238.536 110.543 239.832C101.978 241.128 101.425 231.519 101.425 231.519L100.154 233.724L97.0018 229.12L93.1821 234.132C93.1821 234.132 89.1182 241.5 89.7141 248.338L91.4158 245.753C91.4158 245.753 88.8238 259.3 98.6461 271.558V266.904C98.6461 266.904 103.205 274.944 112.231 277.715L111.383 273.863C111.383 273.863 122.038 278.667 136.901 276.161L136.887 276.147Z" fill="#3A312F"/>
<path d="M139.464 260.102C142.939 262.6 148.583 262.865 148.583 262.865C126.993 267.441 115.699 260.102 115.699 260.102L120.143 265.085C106.523 261.204 104.304 249.562 104.304 249.562C102.911 253.443 101.662 259.4 101.662 259.4L100.692 253.579L99.6082 256.343L97.4326 249.004C94.8047 254.187 93.7708 258.927 93.3975 262.414C94.5319 265.386 96.2048 268.5 98.6389 271.536V266.882C98.6389 266.882 103.198 274.923 112.223 277.694L111.376 273.842C111.376 273.842 122.031 278.646 136.894 276.14C151.757 273.634 180.606 262.851 189.193 243.218L186.429 244.973C186.429 244.973 189.294 240.641 188.597 229.872C185.467 237.225 180.469 241.228 180.469 241.228V236.81C174.768 244.708 165.32 248.173 165.32 248.173H171.724C159.367 260.51 139.472 260.094 139.472 260.094L139.464 260.102Z" fill="#282525"/>
<path d="M93.1677 234.118C93.1677 234.118 89.1038 241.486 89.6998 248.323L91.4014 245.739C91.4014 245.739 88.8095 259.285 98.6317 271.543V266.889C98.6317 266.889 103.191 274.93 112.216 277.701L111.369 273.849C111.369 273.849 122.024 278.653 136.887 276.147C151.749 273.641 180.599 262.858 189.186 243.225L186.422 244.98C186.422 244.98 193.357 234.533 183.054 205.678C172.751 176.824 183.054 151.112 183.054 151.112L162.096 147.546C162.096 147.546 157.465 166.9 158.017 191.895L155.885 185.695C155.885 185.695 153.566 190.864 153.753 199.32L152.92 196.872C152.92 196.872 149.236 204.053 150.629 213.34C152.022 222.626 140.412 214.85 133.325 221.681L134.668 212.932C134.668 212.932 131.983 214.048 130.224 215.896L131.81 212.015L128.192 212.624L130.41 208.757C130.41 208.757 121.679 204.397 112.216 203.982L117.206 202.664C117.206 202.664 98.7035 198.826 89.3336 201.339C89.3336 201.339 84.7312 204.44 83.2521 211.693L84.7312 211.199L84.9179 213.898L88.1202 213.848L90.6619 215.072L92.0548 214.7L94.374 216.175L96.1331 215.158L102.25 217.378L107.162 218.337C107.162 218.337 111.24 222.111 119.023 226.908C119.023 226.908 119.109 238.536 110.543 239.832C101.978 241.128 101.425 231.519 101.425 231.519L100.154 233.724L97.0018 229.12L93.1821 234.132L93.1677 234.118Z" stroke="#1C1C26" stroke-width="1.5407" stroke-miterlimit="10"/>
<path d="M197.845 190.205L165.528 186.282C165.528 186.282 165.083 179.064 166.282 158.444C167.481 137.823 127.323 156.432 142.609 101.099C81.5577 132.503 62.3942 109.204 61.7193 95.3569C61.7193 95.3569 68.1167 106.541 81.1197 107.421C81.1197 107.421 68.4183 102.653 64.8283 83.2064C61.2311 63.7598 78.499 54.3945 78.499 54.3945C78.499 54.3945 71.0318 73.3256 86.3252 81.8961C86.3252 81.8961 82.1393 77.5357 82.6849 67.7193C82.6849 67.7193 86.3755 79.0321 96.9875 83.1634C96.9875 83.1634 92.6651 79.9557 94.6827 73.433C94.6827 73.433 98.0573 82.025 105.797 82.3615C113.537 82.698 146.824 52.1176 212.636 68.5713C278.448 85.025 293.597 141.51 281.987 179.788C281.987 179.788 271.763 230.223 224.806 242.932C224.806 242.932 192.517 226.664 197.838 190.198L197.845 190.205Z" fill="#624A49"/>
<path d="M82.685 67.7334C82.1393 77.5426 86.3252 81.9102 86.3252 81.9102C80.7248 78.767 78.1831 74.2418 77.1995 69.7668C75.5337 76.7478 72.6832 85.8196 68.045 93.5094C69.6605 96.9677 71.556 99.6312 73.4084 101.657C77.9964 92.7218 85.2841 85.5045 91.8395 80.2992C85.1549 75.28 82.685 67.7334 82.685 67.7334Z" fill="#9B8175"/>
<path d="M64.3329 98.8363C63.8375 99.4449 63.3277 100.039 62.7964 100.612C64.0241 104.049 66.3361 107.579 70.0194 110.457C70.522 108.517 71.1611 106.641 71.9293 104.822C68.5619 103.061 66.0345 100.741 64.3329 98.8291V98.8363Z" fill="#9B8175"/>
<path d="M94.6899 73.4399C94.0868 75.3946 94.0509 77.0414 94.3022 78.409C95.0776 77.829 95.8387 77.2849 96.5783 76.7693C95.3002 74.9722 94.6971 73.4399 94.6971 73.4399H94.6899Z" fill="#9B8175"/>
<path d="M144.275 91.2327L138.466 103.168C139.831 102.503 141.202 101.822 142.609 101.099C134.553 130.248 141.891 138.875 150.464 143.529C147.872 139.484 145.89 134.121 146.616 127.57C146.616 127.57 151.039 141.224 163.13 146C163.13 146 160.085 141.696 159.152 138.088C159.152 138.088 166.016 144.768 168.407 150.603L169.118 141.41C169.118 141.41 173.677 150.253 172.356 157.363C172.356 157.363 176.269 154.756 178.064 151.241C178.064 151.241 177.727 158.336 174.819 162.153C174.819 162.153 181.029 159.339 184.662 154.935C184.662 154.935 178.122 162.468 182.537 169.556C184.426 172.585 220.412 190.105 220.412 190.105L204.214 220.965C204.214 220.965 222.077 225.053 232.998 198.719C232.998 198.719 231.103 215.237 216.886 224.323C216.886 224.323 232.007 222.325 242.612 204.318C242.612 204.318 236.445 223.113 221.575 230.932C221.575 230.932 237.615 227.795 246.188 215.903C246.188 215.903 242.469 225.254 234.578 231.297C234.578 231.297 245.506 227.659 253.045 219.125C253.045 219.125 249.871 226.056 242.476 231.068C242.476 231.068 246.777 230.846 253.231 227.989C260.562 221.745 266.141 214.585 270.341 207.719C256.003 178.162 144.282 91.2256 144.282 91.2256L144.275 91.2327Z" fill="#3A312F"/>
<path d="M178.208 143.415C178.208 143.415 181.805 150.102 180.843 155.401C180.843 155.401 185.474 152.121 187.57 150.067L186.781 154.055L194.908 149.107L143.485 97.9346L139.852 100.305L138.459 103.169C139.823 102.503 141.195 101.822 142.602 101.099C136.427 123.438 139.299 133.72 144.835 139.405C142.301 133.341 141.274 125.723 146.063 118.197C146.063 118.197 146.372 128.723 155.677 136.778C155.677 136.778 152.101 130.964 152.295 125.135C152.295 125.135 162.799 132.968 166.124 142.212C166.124 142.212 167.416 136.534 166.447 130.835C166.447 130.835 174.603 139.011 175.601 149.451C175.601 149.451 177.913 147.582 178.208 143.415Z" fill="#282525"/>
<path d="M230.708 175.055C230.708 175.055 233.228 195.597 225.021 205.106C225.021 205.106 234.298 198.461 237.996 184.492C237.996 184.492 238.419 202.077 232.259 210.297C232.259 210.297 243.474 203.867 249.728 189.275C249.728 189.275 246.209 207.11 238.836 216.755C238.836 216.755 250.812 208.134 255.91 196.313C255.91 196.313 252.621 212.488 246.339 221.402C246.339 221.402 258.861 211.936 262.731 201.404C262.731 201.404 260.505 215.323 253.705 223.278C253.705 223.278 258.487 220.679 264.511 216.146C266.694 213.347 268.64 210.511 270.341 207.726C265.969 198.712 252.521 184.349 235.956 168.747L230.708 175.055Z" fill="#282525"/>
<path d="M119.978 80.9511C114.148 86.1063 105.819 86.4858 105.819 86.4858C108.066 87.3951 110.572 87.5311 110.572 87.5311C104.096 89.5145 92.859 88.0323 92.859 88.0323C100.635 92.4572 113.789 90.9751 113.789 90.9751C103.055 95.2281 87.2299 92.8653 87.2299 92.8653C97.167 100.025 115.447 97.5838 115.447 97.5838C101.03 103.885 81.5505 98.5504 81.5505 98.5504C95.2787 111.882 114.65 106.899 114.65 106.899C114.65 106.899 109.983 112.756 99.9744 116.128C111.075 114.603 125.018 110.135 142.351 101.243C147.966 86.2495 124.918 76.5907 119.971 80.9583L119.978 80.9511Z" fill="#3A312F"/>
<path d="M156.165 92.0488C132.579 105.889 117.831 107.901 117.831 107.901L130.382 101.858C130.382 101.858 113.889 108.495 97.3896 105.087C97.3896 105.087 114.643 103.419 124.767 95.1562C124.767 95.1562 114.399 96.3519 107.047 95.2708C107.047 95.2708 121.177 93.5739 137.145 84.6167C153.106 75.6595 156.172 92.0488 156.172 92.0488H156.165Z" fill="#282525"/>
<path d="M81.5577 98.5432C90.4106 105.775 101.805 108.181 112.956 106.14C123.956 104.207 134.316 99.3451 143.701 93.3809L144.706 94.863C142.365 96.5026 139.917 97.9847 137.425 99.3738C120.71 108.854 96.1618 114.56 81.5649 98.5361L81.5577 98.5432Z" fill="#1C1C26"/>
<path d="M160.997 153.045C162.196 132.424 127.323 156.439 142.617 101.099C81.5651 132.503 62.4017 109.204 61.7267 95.3569C61.7267 95.3569 68.1241 106.541 81.1271 107.421C81.1271 107.421 68.4257 102.653 64.8357 83.2064C61.2385 63.7598 78.5064 54.3945 78.5064 54.3945C78.5064 54.3945 71.0392 73.3256 86.3326 81.8961C86.3326 81.8961 82.1467 77.5357 82.6923 67.7193C82.6923 67.7193 86.3829 79.0321 96.9949 83.1634C96.9949 83.1634 92.6725 79.9557 94.6901 73.433C94.6901 73.433 98.0647 82.025 105.805 82.3615C113.545 82.698 146.831 52.1176 212.643 68.5713C278.455 85.025 293.605 141.51 281.995 179.788C281.995 179.788 271.77 230.223 224.813 242.932C224.813 242.932 192.525 226.664 197.845 190.198" stroke="#1C1C26" stroke-width="1.5407" stroke-miterlimit="10"/>
<path d="M228.848 169.793C225.61 155.129 212.011 146.258 197.5 150.754C184.189 154.878 176.262 168.819 179.529 182.33C179.931 183.991 180.477 185.581 181.159 187.077C183.499 192.246 184.275 197.967 183.729 203.609C183.507 205.879 183.787 208.242 184.641 210.562C187.283 217.729 195.038 222.455 202.426 220.464C217.827 216.326 234.133 193.657 228.855 169.786L228.848 169.793Z" fill="#EAA98C"/>
<path d="M197.493 150.747C192.697 152.236 188.597 155 185.474 158.566C203.165 162.511 220.218 182.91 227.384 193.757C229.882 186.418 230.708 178.177 228.848 169.793C225.61 155.129 212.011 146.258 197.5 150.754L197.493 150.747Z" fill="#B28170"/>
<path d="M186.264 213.784C190.234 217.557 195.339 220.793 200.99 219.798C207.344 218.452 212.736 214.263 217.008 209.523C227.218 197.931 231.814 180.669 226.393 165.955C214.833 138.238 176.449 151.821 180.096 179.974C180.52 183.518 182.121 186.604 182.379 190.241C181.381 188.673 180.398 187.27 179.615 185.58C177.468 180.482 177.296 174.625 178.646 169.298C182.2 154.52 198.62 144.589 213.275 149.795C224.354 153.683 230.37 164.566 230.923 175.821C232.065 192.132 224.059 209.051 210.266 218.015C207.129 219.92 203.603 221.574 199.884 221.831C194.312 222.197 188.238 219.082 186.264 213.791V213.784Z" fill="#1C1C26"/>
<path d="M198.714 193.241C213.031 196.707 225.854 180.962 217.224 167.816C208.593 154.67 192.309 163.248 189.444 176.766C186.572 190.291 196.718 188.494 198.721 193.241H198.714Z" fill="#B28170"/>
<path d="M196.531 190.786C209.915 185.659 205.944 166.334 194.98 170.38C184.009 174.425 191.857 188.008 193.358 188.91C194.858 189.812 196.531 190.779 196.531 190.779V190.786Z" fill="#8E665B"/>
<path d="M195.741 203.308C198.929 194.759 200.509 194.165 192.036 188.895C188.64 186.847 188.008 182.394 188.145 178.843C188.669 167.866 196.998 158.53 208.637 160.993C221.683 163.327 225.603 181.685 216.872 190.556C223.341 181.542 219.593 165.797 208.177 163.141C197.881 160.792 190.787 169.32 190.299 178.943C190.205 181.929 190.521 185.494 193.207 187.198C195.267 188.709 197.529 189.905 199.087 192.053C201.679 195.905 198.57 200.595 195.741 203.308Z" fill="#1C1C26"/>
<path d="M204.508 182C204.881 179.802 204.982 177.547 204.336 175.542C203.158 171.418 198.233 169.692 194.528 171.353C192.726 172.12 191.333 173.602 190.809 175.442L188.69 174.812C189.38 172.356 191.39 170.315 193.774 169.463C197.256 168.124 201.55 169.055 203.876 172.005C206.124 174.855 205.793 178.914 204.501 182H204.508Z" fill="#1C1C26"/>
<path d="M111.872 180.604C132.6 180.017 135.745 157.313 135.745 157.313C135.745 157.313 126.339 138.969 110.694 139.413C110.694 139.413 104.505 143.73 104.979 160.184C105.453 176.638 111.872 180.597 111.872 180.597V180.604Z" fill="white"/>
<path d="M110.687 139.42C110.687 139.42 107.456 141.682 105.84 149.15C111.505 153.639 127.811 148.792 135.68 157.67C135.716 157.448 135.738 157.32 135.738 157.32C135.738 157.32 126.332 138.976 110.687 139.42Z" fill="#E3EDFC"/>
<path d="M111.948 180.557C116.622 180.425 120.148 171.12 119.825 159.776C119.502 148.431 115.452 139.343 110.779 139.476C106.105 139.609 102.579 148.913 102.902 160.257C103.225 171.602 107.275 180.69 111.948 180.557Z" fill="#1C1C26"/>
<path d="M121.952 153.489C122.024 155.959 120.746 158 119.102 158.05C117.458 158.1 116.065 156.131 115.993 153.661C115.921 151.191 117.199 149.15 118.843 149.1C120.488 149.05 121.881 151.019 121.952 153.489Z" fill="white"/>
<path d="M134.18 153.468C133.505 152.257 132.744 151.098 131.933 149.959C130.296 147.697 128.378 145.613 126.189 143.787C125.621 143.358 125.097 142.856 124.494 142.477L122.699 141.281C122.082 140.909 121.428 140.594 120.796 140.243C120.473 140.078 120.157 139.899 119.827 139.742L118.815 139.334C115.792 137.959 112.073 137.365 109.15 137L104.175 142.992L110.127 141.589C112.633 141.675 115.203 141.84 117.63 142.649L118.556 142.899C118.858 143.007 119.152 143.128 119.454 143.243C120.042 143.486 120.66 143.694 121.242 143.966L122.972 144.854C123.561 145.133 124.078 145.534 124.638 145.871C126.835 147.288 128.881 149 130.705 150.954C131.609 151.942 132.478 152.959 133.275 154.047C134.087 155.129 134.819 156.238 135.731 157.312C135.472 155.923 134.869 154.656 134.173 153.468H134.18Z" fill="#1C1C26"/>
<path d="M108.109 139.09C109.66 136.534 112.87 135.661 115.663 135.603C122.498 135.56 128.989 139.133 133.239 144.324C134.079 145.362 134.797 146.479 135.465 147.618C134.69 146.544 133.835 145.541 132.938 144.582C128.501 139.978 122.189 136.742 115.713 136.978C113.365 137.136 110.73 137.759 109.445 139.856L108.109 139.083V139.09Z" fill="#1C1C26"/>
<path d="M156.373 62.686C206.454 30.5447 337.632 61.2325 285.075 177.253L156.373 62.686Z" fill="#7C49AD"/>
<path d="M277.27 109.691C270.27 122.486 254.509 107.457 231.706 95.0563C208.902 82.6552 191.562 69.1371 194.456 62.8434C198.448 54.1655 225.861 51.6595 248.658 64.0606C271.461 76.4618 284.263 96.8892 277.27 109.691Z" fill="#9F58D6"/>
<path d="M285.075 177.253C292.391 161.093 296.146 146.594 297.051 133.685C282.382 147.174 237.385 127.384 174.689 54.624C167.883 56.593 161.672 59.2852 156.373 62.6862L285.075 177.253Z" fill="#623893"/>
<path d="M156.373 62.686C206.454 30.5447 337.632 61.2325 285.075 177.253L156.373 62.686Z" stroke="#1C1C26" stroke-width="1.5407" stroke-miterlimit="10"/>
<path d="M261.546 215.208L119.884 77.4356C117.745 75.352 118.226 71.8007 120.839 70.3543L155.957 51.0009C157.637 50.0772 159.719 50.3207 161.133 51.6166L290.165 169.463C291.702 170.866 292.061 173.143 291.027 174.955L268.539 214.227C267.089 216.755 263.635 217.242 261.546 215.208Z" fill="#9F58D6"/>
<path d="M149.495 58.705L155.698 55.4329C157.127 54.6811 158.872 54.9102 160.057 55.9985L284.558 170.981C285.807 172.134 286.13 173.974 285.355 175.485L282.389 181.256C281.248 183.482 278.282 184.012 276.437 182.315L148.698 64.834C146.774 63.0655 147.183 59.9294 149.495 58.705Z" fill="#B364FF"/>
<path d="M150.242 83.5142C140.103 73.3255 134.826 67.44 132.801 63.7598L120.839 70.3541C118.219 71.8004 117.738 75.3518 119.885 77.4354L261.546 215.208C263.635 217.242 267.089 216.755 268.539 214.227L280.322 193.642C267.484 207.891 178.394 111.811 150.242 83.5142Z" fill="#7C49AD"/>
<path d="M261.546 215.208L119.884 77.4356C117.745 75.352 118.226 71.8007 120.839 70.3543L155.957 51.0009C157.637 50.0772 159.719 50.3207 161.133 51.6166L290.165 169.463C291.702 170.866 292.061 173.143 291.027 174.955L268.539 214.227C267.089 216.755 263.635 217.242 261.546 215.208Z" stroke="#1C1C26" stroke-width="1.5407" stroke-miterlimit="10"/>
<path d="M126.942 84.302C122.843 75.5668 124.918 72.2159 169.139 58.9341" stroke="#1C1C26" stroke-width="1.5407" stroke-miterlimit="10"/>
<path d="M146.407 103.233C144.964 93.7245 145.302 91.8987 185.043 73.4546" stroke="#1C1C26" stroke-width="1.5407" stroke-miterlimit="10"/>
<path d="M168.608 124.821C163.912 112.713 170.331 111.882 207.926 94.3477" stroke="#1C1C26" stroke-width="1.5407" stroke-miterlimit="10"/>
<path d="M190.076 145.699C189.911 142.27 227.032 111.804 227.032 111.804" stroke="#1C1C26" stroke-width="1.5407" stroke-miterlimit="10"/>
<path d="M210.625 165.683C221.654 165.976 223.456 171.203 245.865 129.002" stroke="#1C1C26" stroke-width="1.5407" stroke-miterlimit="10"/>
<path d="M235.705 190.062C252.198 190.284 251.961 186.182 263.736 145.155" stroke="#1C1C26" stroke-width="1.5407" stroke-miterlimit="10"/>
<path d="M254.775 208.664C263.477 210.518 266.45 215.917 281.198 161.157" stroke="#1C1C26" stroke-width="1.5407" stroke-miterlimit="10"/>
<path d="M131.609 132.704C119.217 117.56 88.314 120.911 85.3989 126.067C82.491 131.222 88.4145 139.234 90.5039 139.169C92.5861 139.112 131.609 132.704 131.609 132.704Z" fill="#624A49"/>
<path d="M85.0974 126.704C82.9721 131.852 88.5079 139.227 90.504 139.169C92.5862 139.112 131.609 132.704 131.609 132.704C131.602 132.69 131.588 132.683 131.581 132.668C123.503 128.888 111.254 128.114 111.254 128.114L114.93 130.585C108.863 127.935 96.1977 129.525 96.1977 129.525L99.3282 131.773C99.3282 131.773 88.9962 131.229 85.0974 126.697V126.704Z" fill="#3A312F"/>
<path d="M131.609 132.704C119.217 117.56 88.314 120.911 85.3989 126.067C82.491 131.222 88.4145 139.234 90.5039 139.169C92.5861 139.112 131.609 132.704 131.609 132.704Z" stroke="#1C1C26" stroke-width="1.5407" stroke-miterlimit="10"/>
<path d="M79.1452 55.0246C70.0194 64.4257 65.5678 77.686 77.3861 86.9797C87.7324 94.6266 101.848 94.2042 113.789 90.9678C107.829 93.345 101.331 94.6839 94.8047 94.4047C76.4239 93.8533 61.0875 79.7768 71.8 61.5116C73.4873 58.6691 75.5767 56.1201 77.8528 53.7788L79.1452 55.0246Z" fill="#1C1C26"/>
<path d="M88.0556 220.814C89.2833 221.845 90.6978 222.669 92.263 223.177C93.8426 223.643 95.494 223.886 97.167 223.9C98.8399 223.9 100.527 223.721 102.186 223.385C103.83 223.056 105.503 222.569 107.004 221.953L107.743 223.772C105.991 224.394 104.282 224.788 102.516 225.11C100.75 225.404 98.962 225.597 97.1598 225.576C95.3576 225.526 93.5411 225.304 91.7676 224.803C90.0013 224.28 88.3284 223.421 86.8062 222.325L88.0627 220.814H88.0556Z" fill="#1C1C26"/>
<path d="M102.509 221.838L109.897 225.168C109.897 225.168 108.741 219.826 102.509 221.838Z" fill="#1C1C26"/>
<path d="M118.399 358L135.3 313.758L248.924 288.226C252.133 292.758 255.321 297.634 258.416 302.853C270.062 322.508 277.127 341.582 281.521 358H118.406H118.399Z" fill="#C6E2D9"/>
<path d="M133.268 358C135.601 357.305 138.107 356.446 140.814 355.394C154.033 350.26 170.13 341.381 186.149 330.405C202.16 319.429 216.24 307.622 225.782 297.154C227.247 295.55 228.575 294.011 229.774 292.529L217.683 295.242C208.629 304.565 196.143 314.832 182.063 324.484C166.49 335.159 150.916 343.751 138.193 348.699C128.35 352.522 122.979 353.045 120.394 352.766L118.391 358H133.261H133.268Z" fill="#A6BCB5"/>
<path d="M225.904 335.374C242.382 320.131 240.3 292.278 240.3 292.278H243.682C243.682 292.278 245.305 325.68 229.186 336.627L225.904 335.382V335.374Z" fill="#EBFFF8"/>
<path d="M214.222 334.257C232.302 320.933 233.328 293.023 233.328 293.023L236.689 293.395C236.689 293.395 234.578 326.768 217.339 335.861L214.222 334.257Z" fill="#EBFFF8"/>
<path d="M118.399 358L135.3 313.758L248.924 288.226C252.133 292.758 255.321 297.634 258.416 302.853C270.062 322.508 277.127 341.582 281.521 358" stroke="#1C1C26" stroke-width="1.56535" stroke-linecap="round" stroke-linejoin="round"/>
<path d="M140.706 295.679C146.307 311.173 231.354 287.703 238.771 273.662L252.068 293.409C253.289 295.221 252.815 297.67 251.006 298.894C243.66 303.849 223.621 315.441 190.514 320.596C160.846 325.214 145.165 322.078 138.359 319.737C135.896 318.892 134.553 316.25 135.3 313.765L140.714 295.686L140.706 295.679Z" fill="#A6BCB5"/>
<path d="M225.782 297.154C234.585 287.502 238.627 280.128 238.031 274.772C236.351 276.92 233.07 279.24 228.683 281.588C227.146 284.245 224.598 287.775 220.455 292.321C212.226 301.343 200.422 311.453 186.852 321.133C188.051 320.968 189.265 320.789 190.514 320.596C194.743 319.937 198.757 319.171 202.562 318.333C211.702 311.102 219.672 303.856 225.782 297.154Z" fill="#819B92"/>
<path d="M140.706 295.679C146.307 311.173 231.354 287.703 238.771 273.662L252.068 293.409C253.289 295.221 252.815 297.67 251.006 298.894C243.66 303.849 223.621 315.441 190.514 320.596C160.846 325.214 145.165 322.078 138.359 319.737C135.896 318.892 134.553 316.25 135.3 313.765L140.714 295.686L140.706 295.679Z" stroke="#1C1C26" stroke-width="1.56535" stroke-linecap="round" stroke-linejoin="round"/>
<path d="M136.248 310.6C136.248 310.6 147.707 321.333 189.918 313.901C233.436 306.233 249.72 289.922 249.72 289.922" stroke="#1C1C26" stroke-width="1.56535" stroke-linecap="round" stroke-linejoin="round"/>
<path d="M250.446 358C228.769 304.522 186.974 320.038 167.064 358.1L250.446 358Z" fill="#A6BCB5"/>
<path d="M250.446 358C228.769 304.522 186.974 320.038 167.064 358.1" stroke="#1C1C26" stroke-width="1.56535" stroke-linecap="round" stroke-linejoin="round"/>
<path d="M124.925 352.852C120.559 352.852 117.508 351.556 115.72 348.957L121.658 344.89C122.153 345.606 126.957 347.124 141.446 341.496C154.162 336.556 169.742 327.957 185.316 317.281C200.889 306.606 214.517 295.186 223.7 285.119C234.161 273.648 234.456 268.629 233.968 267.913L239.905 263.846C243.653 269.281 240.099 277.823 229.035 289.952C219.493 300.419 205.413 312.226 189.401 323.203C173.39 334.179 157.285 343.05 144.067 348.191C136.061 351.298 129.714 352.852 124.932 352.852H124.925Z" fill="#F9A723"/>
<path d="M124.925 352.852C129.7 352.852 136.054 351.298 144.06 348.191C157.278 343.057 173.375 334.179 189.394 323.203C205.405 312.226 219.485 300.419 229.028 289.952C240.092 277.823 243.646 269.281 239.898 263.846L239.259 264.283C239.173 268.443 236.007 275.016 227.793 285.212C213.059 303.505 175.472 329.976 151.57 340.795C133.763 348.857 122.52 351.198 116.352 348.52L115.72 348.957C117.508 351.556 120.559 352.852 124.925 352.852Z" fill="#EF7F1B"/>
<path d="M239.898 263.839C243.646 269.273 240.092 277.815 229.028 289.944C219.485 300.412 205.405 312.219 189.394 323.195C173.383 334.172 157.278 343.043 144.06 348.184C136.054 351.291 129.707 352.845 124.925 352.845C120.559 352.845 117.508 351.549 115.72 348.95" stroke="#1C1C26" stroke-width="1.56535" stroke-linecap="round" stroke-linejoin="round"/>
<path d="M121.658 344.883C122.153 345.599 126.957 347.117 141.446 341.489C154.162 336.549 169.742 327.95 185.316 317.274C200.889 306.598 214.517 295.178 223.7 285.111C234.161 273.641 234.456 268.622 233.967 267.906" stroke="#1C1C26" stroke-width="1.56535" stroke-linecap="round" stroke-linejoin="round"/>
</svg>
