<svg width="526" height="436" viewBox="0 0 526 436" preserveAspectRatio="xMidYMid meet" fill="none" xmlns="http://www.w3.org/2000/svg">
<path d="M48.0495 30.558C-12.8566 80.6453 -15.0392 177.745 43.2683 244.435C78.679 284.944 128.033 305.618 174.849 304.261C201.924 303.472 228.62 319.162 242.398 344.247C248.537 355.441 256.062 366.218 264.971 376.345C322.869 442.123 418.689 455.126 478.732 405.354C539.856 354.69 541.741 258.836 483.124 191.799C447.62 151.183 398.092 130.502 351.147 131.976C324.081 132.835 297.536 116.398 283.665 91.3607C277.688 80.5655 270.412 70.147 261.841 60.3476C203.858 -5.97435 108.48 -19.1498 48.059 30.5516L48.0495 30.558Z" fill="#141414"/>
</svg>
