<svg width="48" height="48" viewBox="0 0 48 48" fill="none" xmlns="http://www.w3.org/2000/svg">
<g clip-path="url(#clip0_202_326)">
<circle cx="24" cy="24" r="24" fill="#9F58D6"/>
<g clip-path="url(#clip1_202_326)">
<path d="M19.8569 30.1762C20.5811 31.4979 21.3619 32.7889 22.2224 34.0223C22.6258 34.6037 23.0385 35.1781 23.4724 35.7389C23.9063 36.2998 24.3928 37.1347 25.0073 37.5063C27.229 38.8499 27.7882 34.249 28.0355 33.0491C28.3669 31.4432 28.6559 29.8258 28.8661 28.2001C29.0764 26.5745 29.2465 24.9406 29.3372 23.3038C29.4054 22.0844 29.7831 20.2457 29.0815 19.117C27.9585 20.6537 27.32 22.4285 27.0466 24.3093C27.0528 24.3239 27.059 24.3385 27.0622 24.3554C27.0879 24.4277 27.0603 24.4871 27.0138 24.5246C27.0085 24.5624 27.0036 24.5974 26.9984 24.6352C26.9688 24.8867 26.5968 24.8293 26.6121 24.5813C26.6209 24.4396 26.6401 24.302 26.657 24.1614C25.6668 21.8845 24.7628 19.5619 23.8254 17.2621C23.3722 16.1487 22.9306 15.0314 22.4655 13.9247C22.0436 12.9229 21.5795 11.7695 20.7124 11.0575C19.9118 10.4015 20.3118 11.6201 20.3682 12.0843C20.4376 12.6328 20.5073 13.1786 20.5741 13.7268C20.7299 14.9581 20.8831 16.1891 21.0359 17.4227C21.3327 19.8146 21.5611 22.1447 22.3199 24.4416C22.3874 24.6489 22.0977 24.8505 21.967 24.6425C21.9674 24.6398 21.9624 24.6364 21.9604 24.6306C21.8795 24.6578 21.7862 24.6558 21.7069 24.5925C20.1868 23.41 18.5659 22.5956 16.6455 22.5064C17.4596 25.1573 18.5199 27.741 19.8542 30.1759L19.8569 30.1762Z" fill="#CED9E8"/>
<path d="M20.1735 32.032C21.0731 33.5568 22.087 35.0123 23.1694 36.4114C23.9972 37.4836 24.8337 38.7109 26.3385 38.2858C27.6399 37.9175 27.9854 36.2503 28.2611 35.1424C28.7858 33.0191 29.1828 30.8642 29.493 28.6999C29.8032 26.5357 29.9756 24.3522 30.0632 22.1652C30.1127 20.8828 30.3375 19.3114 29.271 18.3709C29.153 18.2692 28.9352 18.291 28.8454 18.4215C27.7965 19.9796 27.0554 21.6604 26.7514 23.4846C25.7768 20.8195 24.7125 18.1858 23.6883 15.5412C23.2147 14.3178 22.8117 13.0025 22.1206 11.8779C21.7098 11.2103 21.0146 10.1347 20.1508 10.0307C19.4548 9.94731 19.5873 10.9912 19.6286 11.3461C19.8234 12.9897 20.0516 14.6298 20.2687 16.271C20.4822 17.8788 20.6876 19.4854 20.9068 21.0912C21.0208 21.9126 21.1575 22.7482 21.4367 23.5294C19.9889 22.2828 18.0323 21.7431 16.1224 21.7956C15.8764 21.8025 15.7825 22.0808 15.8433 22.2762C16.9031 25.6927 18.351 28.9517 20.1704 32.0343L20.1735 32.032ZM21.7096 24.5929C21.7916 24.6565 21.8822 24.6582 21.9631 24.631C21.9628 24.6337 21.9678 24.6371 21.9697 24.6429C22.1004 24.8508 22.3901 24.6493 22.3227 24.442C21.5669 22.1428 21.3358 19.8123 21.0386 17.4231C20.8854 16.1921 20.7326 14.9585 20.5768 13.7271C20.5074 13.1786 20.4376 12.6328 20.3709 12.0847C20.3118 11.6201 19.9146 10.4018 20.7151 11.0578C21.5826 11.7671 22.0467 12.9205 22.4682 13.925C22.9333 15.0318 23.3749 16.1491 23.8281 17.2624C24.7655 19.5622 25.6699 21.8822 26.6597 24.1618C26.6455 24.3028 26.6263 24.4403 26.6149 24.5817C26.5995 24.8297 26.9688 24.8867 27.0011 24.6355C27.0063 24.5978 27.0112 24.5627 27.0165 24.525C27.0627 24.4902 27.0902 24.4308 27.0649 24.3558C27.0587 24.3412 27.0524 24.3266 27.0493 24.3096C27.3223 22.4316 27.9609 20.6568 29.0842 19.1173C29.7858 20.2461 29.4081 22.0848 29.3399 23.3041C29.2492 24.9409 29.0791 26.5749 28.8688 28.2005C28.6586 29.8261 28.3696 31.4435 28.0382 33.0495C27.7879 34.2516 27.229 38.8499 25.01 37.5067C24.3955 37.135 23.909 36.3002 23.4751 35.7393C23.0413 35.1784 22.6286 34.604 22.2251 34.0227C21.365 32.7866 20.5842 31.4955 19.8596 30.1766C18.5253 27.7417 17.4646 25.1608 16.6509 22.5071C18.5713 22.5963 20.1896 23.4104 21.7123 24.5932L21.7096 24.5929Z" fill="#0D1119"/>
<path d="M20.7155 11.0551C19.9718 10.4455 20.2653 11.4597 20.3554 11.9781C21.758 13.8452 22.5206 16.2141 23.3081 18.4242C23.7193 19.5813 23.984 20.7233 24.1961 21.9268C24.4133 23.1529 24.6923 25.0805 25.4293 26.0932C25.723 26.4943 26.3226 26.6962 26.6309 27.0718C27.2033 27.7647 27.3191 28.5726 27.4769 29.4743C27.7264 30.9029 27.8451 32.4398 27.6169 33.8787C27.4206 35.1076 26.8758 36.2302 26.5429 37.4126C27.5234 36.4828 27.858 33.9068 28.0351 33.0518C28.3665 31.4458 28.6555 29.8285 28.8657 28.2028C29.076 26.5772 29.2461 24.9433 29.3368 23.3064C29.405 22.0871 29.7827 20.2484 29.0811 19.1197C27.9581 20.6564 27.3196 22.4312 27.0462 24.312C27.0524 24.3266 27.0586 24.3412 27.0618 24.3581C27.0875 24.4304 27.0599 24.4898 27.0134 24.5273C27.0081 24.5651 27.0032 24.6001 26.998 24.6379C26.9684 24.8894 26.5964 24.832 26.6118 24.584C26.6205 24.4423 26.6397 24.3047 26.6566 24.1641C25.6664 21.8872 24.7624 19.5646 23.825 17.2648C23.3718 16.1514 22.9302 15.0341 22.4651 13.9273C22.0432 12.9255 21.5791 11.7722 20.712 11.0601L20.7155 11.0551Z" fill="white"/>
<path d="M21.0676 30.3396C22.1412 32.433 23.769 34.3041 25.1081 36.231C25.2275 36.4016 25.4693 36.3062 25.5053 36.127C25.6628 35.393 24.8048 34.3194 24.4432 33.6944C23.6979 32.4055 22.8103 31.0116 21.7946 29.9242C21.4927 29.6017 20.8315 29.8806 21.0676 30.3396Z" fill="white"/>
<path d="M20.4949 29.2343C20.6461 29.3544 20.9439 29.2722 20.947 29.0527C20.9513 28.7262 20.7995 28.4521 20.6924 28.154C20.5756 27.827 20.5233 27.5311 20.3186 27.2414C20.0977 26.9302 19.6918 27.1759 19.6967 27.4955C19.7067 28.1347 19.9821 28.8246 20.4945 29.237L20.4949 29.2343Z" fill="white"/>
</g>
</g>
<defs>
<clipPath id="clip0_202_326">
<rect width="48" height="48" fill="white"/>
</clipPath>
<clipPath id="clip1_202_326">
<rect width="14.439" height="27.3171" fill="white" transform="translate(17.5662 9.67009) rotate(7.94185)"/>
</clipPath>
</defs>
</svg>
