<svg width="14" height="14" viewBox="0 0 14 14" fill="none" xmlns="http://www.w3.org/2000/svg">
<path d="M10.585 7.66929L6.63497 11.6193C6.45731 11.8087 6.36033 12.0599 6.36455 12.3196C6.36876 12.5792 6.47385 12.8271 6.65756 13.0107C6.84127 13.1943 7.0892 13.2992 7.34889 13.3032C7.60857 13.3072 7.85964 13.2101 8.04897 13.0323L13.706 7.37629C13.7992 7.28363 13.8731 7.17347 13.9236 7.05214C13.974 6.93081 14 6.8007 14 6.66929C14 6.53788 13.974 6.40777 13.9236 6.28644C13.8731 6.1651 13.7992 6.05494 13.706 5.96229L8.04897 0.305288C7.95672 0.209778 7.84637 0.133596 7.72437 0.0811868C7.60237 0.0287778 7.47115 0.00119157 7.33837 3.77567e-05C7.20559 -0.00111606 7.07391 0.0241857 6.95101 0.0744665C6.82811 0.124747 6.71646 0.199001 6.62257 0.292893C6.52868 0.386786 6.45442 0.498438 6.40414 0.621334C6.35386 0.744231 6.32856 0.87591 6.32971 1.00869C6.33087 1.14147 6.35845 1.27269 6.41086 1.39469C6.46327 1.5167 6.53946 1.62704 6.63497 1.71929L10.585 5.66929H0.998965C0.733748 5.66929 0.479395 5.77464 0.291859 5.96218C0.104322 6.14972 -0.00103474 6.40407 -0.00103474 6.66929C-0.00103474 6.9345 0.104322 7.18886 0.291859 7.37639C0.479395 7.56393 0.733748 7.66929 0.998965 7.66929H10.585Z" fill="#D9E5FF"/>
</svg>
