<svg width="270" height="127" viewBox="0 0 270 127" fill="none" xmlns="http://www.w3.org/2000/svg">
<g clip-path="url(#clip0_468_19354)">
<path d="M46.0851 52.7289C52.4567 51.2389 57.2919 48.3807 60.5559 44.1658C63.8258 39.951 65.4549 34.4548 65.4549 27.6833C65.4549 23.9032 64.852 20.3493 63.6171 17.0447C62.3996 13.7342 60.5907 10.8238 58.1905 8.30188C55.7787 5.77992 52.735 3.79134 49.0303 2.34194C45.3198 0.88095 40.9948 0.15625 36.0321 0.15625H0V89.2422H23.1556V54.9784L45.2561 89.2422H74.0817L46.0851 52.7289ZM38.0438 37.1391C35.6031 39.0234 32.0955 39.9742 27.527 39.9742H23.1614V17.9955H27.527C32.0955 17.9955 35.6031 18.9463 38.0438 20.8305C40.4846 22.7147 41.7079 25.4396 41.7079 28.9819C41.7079 32.5243 40.4904 35.2433 38.0438 37.1391Z" fill="#F0F0F0"/>
<path d="M77.6528 28.623V88.5702L99.046 67.3104V28.623H77.6528Z" fill="#F0F0F0"/>
<path d="M100.345 12.2036C100.345 13.2646 100.211 14.2791 99.9505 15.2589C99.8113 15.8155 99.62 16.3489 99.3939 16.8707C98.7562 18.3259 97.9039 19.6013 96.7908 20.7029C95.6892 21.8102 94.408 22.6799 92.9586 23.306C91.4976 23.9437 89.9438 24.2568 88.2915 24.2568C86.6392 24.2568 85.0854 23.9437 83.6244 23.306C82.1634 22.6799 80.8938 21.816 79.7806 20.7029C78.6791 19.6013 77.8152 18.3201 77.1891 16.8707C76.5514 15.4097 76.2383 13.8559 76.2383 12.2036C76.2383 10.5513 76.5514 8.99753 77.1891 7.53653C77.8152 6.08134 78.6791 4.80586 79.7806 3.69272C80.888 2.59118 82.1634 1.72734 83.6244 1.1012C85.0854 0.463461 86.6392 0.150391 88.2915 0.150391C89.9438 0.150391 91.4976 0.463461 92.9586 1.1012C94.408 1.72734 95.6892 2.59118 96.7908 3.69272C97.8981 4.80007 98.7562 6.08134 99.3939 7.53653C99.6142 8.05832 99.8055 8.59749 99.9505 9.14826C100.211 10.1281 100.345 11.1426 100.345 12.2036Z" fill="#F0F0F0"/>
<path d="M270 19.6191V0H242.427L219.312 22.9933V89.0859H270V69.4784H242.479V54.1206H262.852V34.5015H242.479V19.6133H270V19.6191Z" fill="#F0F0F0"/>
<path d="M175.18 54.1029H210.238V89.2363H118.52L128.503 79.276H200.272V64.0631H151.033L215.16 0.150391H229.399L175.18 54.1029Z" fill="#F0F0F0"/>
<path d="M118.99 10.1165V25.3178H168.281L104.194 89.2363H89.8569L99.0403 80.0993L144.117 35.2896H109.03V0.150391H200.939L190.944 10.1165H118.99Z" fill="#F0F0F0"/>
<path d="M192.567 104.247V111.714C193.431 110.81 194.515 110.358 195.814 110.358C196.585 110.358 197.292 110.503 197.936 110.793C198.579 111.082 199.124 111.477 199.577 111.969C200.029 112.462 200.382 113.042 200.643 113.715C200.898 114.387 201.032 115.1 201.032 115.854C201.032 116.608 200.898 117.35 200.638 118.028C200.371 118.706 200.006 119.292 199.53 119.79C199.055 120.289 198.498 120.689 197.855 120.979C197.211 121.269 196.521 121.414 195.773 121.414C194.423 121.414 193.35 120.921 192.567 119.935V121.095H188.897V104.253H192.567V104.247ZM197.194 115.912C197.194 115.587 197.136 115.28 197.014 114.99C196.892 114.7 196.724 114.445 196.504 114.231C196.289 114.016 196.04 113.842 195.756 113.715C195.472 113.587 195.159 113.523 194.823 113.523C194.486 113.523 194.196 113.581 193.907 113.703C193.622 113.825 193.373 113.993 193.164 114.213C192.956 114.428 192.788 114.683 192.654 114.973C192.527 115.263 192.463 115.57 192.463 115.894C192.463 116.219 192.521 116.521 192.643 116.81C192.764 117.1 192.933 117.344 193.153 117.553C193.367 117.761 193.623 117.929 193.912 118.063C194.202 118.19 194.51 118.254 194.834 118.254C195.159 118.254 195.46 118.196 195.75 118.074C196.04 117.953 196.284 117.784 196.492 117.564C196.701 117.344 196.869 117.1 197.002 116.816C197.136 116.532 197.194 116.237 197.194 115.923V115.912Z" fill="#F0F0F0"/>
<path d="M206.343 119.669L201.311 110.683H205.572L208.349 116.022L211.045 110.683H215.265L206.905 126.29H202.789L206.337 119.675L206.343 119.669Z" fill="#F0F0F0"/>
<path d="M229.579 109.157V121.089H225.602V109.157H222.332V105.789H232.843V109.157H229.573H229.579Z" fill="#F0F0F0"/>
<path d="M238.588 111.691H244.328V105.789H248.305V121.089H244.328V114.781H238.588V121.089H234.611V105.789H238.588V111.691Z" fill="#F0F0F0"/>
<path d="M250.821 121.089L253.419 105.789H257.355L260.416 113.946L263.46 105.789H267.397L269.994 121.089H266.04L264.718 112.282L261.106 121.089H259.523L256.091 112.282L254.775 121.089H250.821Z" fill="#F0F0F0"/>
</g>
<defs>
<clipPath id="clip0_468_19354">
<rect width="270" height="126.283" fill="white"/>
</clipPath>
</defs>
</svg>
